<?xml version="1.0" encoding="UTF-8"?>
<svg id="_图层_1" data-name="图层 1" xmlns="http://www.w3.org/2000/svg" viewBox="0 0 419.53 612.79">
  <defs>
    <style>
      .cls-1, .cls-2, .cls-3, .cls-4, .cls-5, .cls-6 {
        fill: #231815;
      }

      .cls-1, .cls-2, .cls-4 {
        font-family: STZhongsong, STZhongsong;
      }

      .cls-7, .cls-8 {
        fill: none;
        stroke: #231815;
        stroke-miterlimit: 10;
      }

      .cls-9, .cls-4 {
        font-size: 17.5px;
      }

      .cls-2 {
        font-size: 22.83px;
      }

      .cls-2, .cls-4 {
        glyph-orientation-vertical: 0deg;
        text-orientation: upright;
        writing-mode: tb;
      }

      .cls-3 {
        font-size: 15px;
      }

      .cls-3, .cls-6 {
        font-family: STFangsong, STFangsong;
      }

      .cls-10 {
        font-size: 10px;
      }

      .cls-11 {
        font-size: 157.62px;
      }

      .cls-12 {
        letter-spacing: 0em;
      }

      .cls-8 {
        stroke-dasharray: 0 0 3 3;
      }

      .cls-6 {
        font-size: 16.31px;
      }

      .cls-13 {
        font-size: 52.54px;
      }
    </style>
  </defs>
  <text class="cls-1" transform="translate(167.21 252.96)"><tspan class="cls-13"><tspan x="0" y="0">2月</tspan></tspan><tspan class="cls-11"><tspan x="-55.17" y="157.62">25</tspan></tspan></text>
  <g>
    <path class="cls-7" d="m0,189.32c.5,0,1,0,1.5,0"/>
    <path class="cls-8" d="m4.5,189.33c137.34.26,274.69.51,412.03.77"/>
    <path class="cls-7" d="m418.03,190.1h1.5"/>
  </g>
  <g>
    <path class="cls-7" d="m0,445.97c.5,0,1,0,1.5,0"/>
    <path class="cls-8" d="m4.5,445.98c137.34.26,274.69.51,412.03.77"/>
    <path class="cls-7" d="m418.03,446.75c.5,0,1,0,1.5,0"/>
  </g>
  <text class="cls-2" transform="translate(36.54 208.72) scale(1 .88)"><tspan x="0" y="0">距离暑假</tspan><tspan x="0" y="121.02" xml:space="preserve">  </tspan><tspan x="0" y="135.63">139天</tspan></text>
  <text class="cls-4" transform="translate(392.65 214.47) scale(1 .82)"><tspan x="0" y="0">距离最近的节假日</tspan><tspan x="0" y="185.5" xml:space="preserve">  </tspan><tspan class="cls-12" x="0" y="196.7">39天</tspan></text>
  <text class="cls-1" transform="translate(39.09 104.07)"><tspan class="cls-10"><tspan x="0" y="0">一言：</tspan></tspan><tspan class="cls-9"><tspan x="15" y="20">我们生活在阴沟里，但有人依然仰望星空。</tspan></tspan></text>
  <g>
    <path class="cls-5" d="m11.51,598.59l-.44.47c-.09.09-.16.19-.21.29,0,.01-.01.02-.02.02,0,0-.02,0-.03-.01l-.17-.17c.09-.08.13-.16.13-.25v-1.27l-.3.02c-.05,0-.11.02-.16.05l-.1-.12c.07,0,.14,0,.2,0l.34-.02.09-.16.24.15s.02.02.02.03c0,0,0,.02-.02.03l-.15.09v1.27l.54-.44.03.04Zm-.9-2.15c.34.18.51.34.51.49,0,.05-.01.1-.04.13-.03.04-.06.06-.1.06-.01,0-.03,0-.04-.02,0-.01-.02-.06-.04-.14-.02-.08-.05-.16-.11-.24s-.13-.17-.21-.25l.03-.03Zm2.77,2.24c0,.12,0,.22,0,.28,0,.06.02.11.04.13.02.03.04.05.07.06.02,0,.02.02.02.05s-.02.07-.07.13c-.05.07-.13.11-.26.12-.12.01-.26.02-.41.02s-.23-.02-.26-.06c-.03-.04-.04-.1-.04-.19v-1.03h-.31c0,.39-.08.69-.22.91s-.45.4-.92.55l-.02-.05c.41-.18.68-.36.8-.55.13-.19.2-.47.21-.86h-.27v.03s-.02.07-.07.08c-.05.02-.08.03-.08.03-.03,0-.04-.03-.03-.09.01-.12.02-.27.02-.46v-.35c0-.13,0-.25-.01-.36l.21.16h.63c.17-.28.31-.54.41-.78l.23.15s.03.02.03.03c0,0-.02.02-.05.02-.04,0-.08.04-.13.09-.05.05-.19.21-.42.49h.38l.13-.16.2.19s.02.03.02.04,0,.02-.03.03l-.09.06v.35c0,.13,0,.23,0,.3v.18s-.01.07-.06.08c-.05.02-.08.03-.09.03s-.02-.01-.02-.04v-.09h-.3v.98c0,.05,0,.09.02.1s.04.03.09.04c.05,0,.11.01.18.01s.14,0,.2-.02c.06-.02.1-.04.11-.07s.03-.08.04-.15.02-.21.03-.41h.06Zm-1.73-2.24c.37.18.55.35.55.5,0,.05-.01.09-.04.12s-.06.05-.09.05c-.02,0-.03,0-.04-.02-.01-.02-.02-.05-.03-.1-.04-.17-.17-.34-.38-.51l.03-.03Zm1.3,1.67v-.8h-1.19v.8h1.19Z"/>
    <path class="cls-5" d="m15.15,596.81l-.09.07v1.11c0,.17,0,.31,0,.41v.25s-.01.07-.06.09c-.05.02-.08.03-.09.03s-.02-.01-.02-.04v-.17h-.63v.23s-.02.06-.06.08-.07.03-.08.03c-.02,0-.03-.02-.03-.05s0-.12,0-.27c0-.14,0-.32,0-.52v-1.11c0-.13,0-.25-.01-.37l.24.17h.5l.1-.14.22.13s.03.03.03.03,0,.02-.03.03Zm-.26.78v-.76h-.63v.76h.63Zm0,.89v-.82h-.63v.82h.63Zm1.85-1.74l-.1.07v2.48c0,.06,0,.11-.03.14-.02.03-.06.07-.12.11-.07.04-.1.06-.11.06s-.02,0-.02-.03c-.02-.07-.05-.13-.11-.17-.06-.04-.18-.08-.36-.13v-.06c.24.05.38.07.45.07s.11,0,.12-.03.02-.05.02-.09v-.9h-.82c0,.33-.1.6-.26.81-.17.21-.43.39-.78.56l-.02-.04c.24-.15.41-.29.53-.4.12-.11.21-.25.27-.39.06-.15.1-.33.12-.55.02-.22.03-.53.03-.94v-.4c0-.16,0-.3-.01-.42l.21.18h.67l.12-.15.21.14s.04.03.04.04c0,0-.01.02-.03.04Zm-.27,1.46v-.68h-.79c-.01.36-.02.58-.03.68h.82Zm0-.75v-.7h-.78c0,.23,0,.47-.01.7h.79Z"/>
    <path class="cls-5" d="m18.01,597.46c.05,0,.1.02.14.06.04.04.06.09.06.14s-.02.1-.06.14c-.04.04-.09.06-.14.06s-.1-.02-.14-.06c-.04-.04-.06-.08-.06-.14s.02-.1.06-.14c.04-.04.09-.06.14-.06Zm0,1.29c.05,0,.1.02.14.06.04.04.06.09.06.14s-.02.1-.06.14c-.04.04-.09.06-.14.06s-.1-.02-.14-.06c-.04-.04-.06-.08-.06-.14s.02-.1.06-.14c.04-.04.09-.06.14-.06Z"/>
    <path class="cls-5" d="m11.38,603.3c-.12,0-.26-.01-.41-.01s-.29,0-.41.01v-.06l.18-.03c.08-.02.12-.06.12-.14v-1.73l-.42.27-.05-.07c.16-.11.35-.27.58-.48h.12v2.01c0,.08.04.13.12.14l.16.03v.06Z"/>
    <path class="cls-5" d="m12.16,603.34c-.05,0-.09-.02-.13-.05-.03-.04-.05-.08-.05-.13s.02-.09.05-.13c.04-.03.08-.05.13-.05s.09.02.13.05c.03.04.05.08.05.13s-.02.09-.05.13c-.04.03-.08.05-.13.05Z"/>
    <path class="cls-5" d="m31.41,601.69l-.15.11c-.02.34-.05.68-.09,1.02-.04.34-.09.56-.14.67-.05.11-.13.19-.23.25-.1.06-.17.09-.18.09s-.03-.01-.04-.04c-.02-.09-.06-.16-.11-.19-.05-.04-.18-.1-.39-.18v-.05c.27.07.46.11.58.11s.19-.04.24-.13.08-.26.12-.52c.03-.26.06-.63.08-1.12h-1.08c-.11.57-.29,1.01-.54,1.33-.25.32-.62.6-1.11.82l-.03-.05c.48-.27.82-.55,1.05-.87.22-.31.38-.72.46-1.21h-1.1c-.07.01-.15.02-.21.05l-.12-.13c.09,0,.17.01.23.01h1.2c.07-.43.11-.78.11-1.05l.29.16s.03.02.03.03,0,.02-.03.04l-.1.08c-.02.17-.06.42-.13.74h1s.14-.22.14-.22l.24.2s.02.03.02.03c0,0,0,.02-.02.03Zm-2.52-.9c.14.08.25.16.33.23.08.07.14.13.16.17s.03.08.03.12-.01.08-.04.12-.05.05-.07.05-.04-.01-.06-.04-.03-.07-.04-.12c-.04-.16-.16-.33-.35-.51l.02-.03Zm1.12,1.32c.39.2.59.37.59.53,0,.05-.01.09-.03.13s-.04.05-.07.05c-.04,0-.08-.05-.1-.15-.02-.06-.07-.14-.15-.25-.08-.11-.17-.2-.26-.27l.02-.04Z"/>
    <path class="cls-5" d="m34.92,601.28s.04.04.04.06-.02.02-.05.02h-1.76c0,.12-.02.33-.05.62h.94l.11-.17.23.18s.03.03.03.03c0,0,0,.02-.03.03l-.13.07c0,.26-.03.52-.05.77-.03.25-.05.42-.07.51s-.06.16-.11.22-.1.1-.17.13c-.07.03-.11.05-.12.05s-.03,0-.03-.03c-.02-.13-.16-.23-.41-.29v-.06c.22.04.36.07.45.07s.14-.02.17-.07c.03-.05.06-.19.1-.43.04-.24.06-.55.07-.93h-.99c-.05.47-.17.85-.37,1.14s-.51.53-.94.72l-.02-.04c.31-.17.56-.38.75-.63.19-.25.31-.54.36-.88s.08-.67.08-1.01h-.83c-.09,0-.17.01-.23.04l-.1-.13c.11,0,.2.01.26.01h2.47l.14-.23.25.23Zm-1.91-.69c.11.04.23.09.36.17.12.08.19.17.19.27,0,.05-.01.09-.04.13-.03.04-.06.05-.1.05s-.07-.04-.08-.11c-.02-.16-.14-.31-.35-.48l.02-.04Z"/>
    <path class="cls-5" d="m36.34,600.73s.04.03.04.04c0,0-.02.02-.05.03-.03.01-.06.03-.08.05-.02.02-.03.05-.05.08-.14.29-.25.5-.32.64l.1.04s.03.01.03.02,0,.01-.01.02l-.07.07v1.43c0,.2,0,.34,0,.4v.17s-.02.06-.06.1c-.04.03-.07.05-.09.05s-.02-.03-.02-.1v-.27c0-.11.01-.23.01-.35v-1.36c-.16.28-.32.51-.48.69l-.04-.03c.38-.57.67-1.19.88-1.86l.23.15Zm2.18,2.78c-.09.01-.16.04-.22.07s-.09.07-.1.13c0,0,0,.01-.02.01-.02,0-.17-.04-.45-.13-.28-.09-.49-.18-.64-.27-.22.25-.56.43-1.03.54v-.04c.42-.14.73-.33.92-.57-.18-.13-.32-.34-.43-.61,0,0-.02.01-.04.02-.02,0-.05.01-.06.01s-.03-.02-.03-.06c0,0,0-.05,0-.14,0-.09,0-.2,0-.33v-.58c0-.08,0-.16-.01-.23l.2.14h.58c0-.19,0-.34,0-.43h-.63c-.09,0-.17.01-.23.04l-.1-.13c.11,0,.2.01.26.01h1.55l.15-.2.2.22s.03.03.03.04-.02.02-.05.02h-1v.43s.53,0,.53,0l.1-.15.23.17s.02.02.02.02,0,.01-.02.02l-.1.06v.55c0,.14,0,.24,0,.31,0,.07,0,.1,0,.11,0,.03-.02.06-.07.09-.05.03-.08.04-.09.04s-.02,0-.02-.03v-.15h-.64c-.02.34-.07.57-.15.69.16.09.35.15.57.2s.43.07.64.07c.05,0,.09,0,.14,0v.04Zm-1.31-1.97h-.61v.39h.61c0-.07,0-.2,0-.39Zm0,.47h-.61v.42h.59c0-.09,0-.23.01-.42Zm-.02.5h-.59v.06c.1.23.26.41.46.56.07-.12.11-.33.13-.62Zm.78-.08v-.42h-.61c0,.13,0,.27-.02.42h.63Zm0-.5v-.39h-.6v.39s.6,0,.6,0Z"/>
    <path class="cls-5" d="m40.16,602.89c-.28.27-.47.45-.55.54-.08.09-.14.18-.17.26,0,.02-.01.03-.02.03s-.02,0-.03-.01l-.2-.18c.07-.05.11-.1.13-.13.02-.03.02-.1.02-.19v-1.36h-.27c-.1.01-.17.03-.22.04l-.1-.11s.07,0,.11,0c.03,0,.1,0,.19,0h.29s.12-.17.12-.17l.22.18s.04.03.04.04-.01.02-.04.03l-.17.08v1.38l.6-.46.05.04Zm-.95-2.16c.13.07.23.13.31.18s.13.1.16.15.04.09.04.14-.01.1-.04.13-.05.05-.08.05-.04,0-.05-.02c-.01-.02-.03-.06-.05-.15-.02-.08-.06-.16-.12-.23-.05-.07-.12-.14-.2-.22l.03-.04Zm2.77,1.07s.03.03.03.04c0,0-.01.01-.04.01h-1v1.27c0,.2,0,.35,0,.45,0,.1,0,.16,0,.17,0,.04-.03.07-.08.09s-.08.03-.1.03-.02-.02-.02-.07v-.25c.01-.09.01-.23.01-.43v-1.26h-.61c-.12,0-.2,0-.24.03l-.12-.12c.09,0,.18.01.28.01h.69v-.67c0-.28,0-.45,0-.53l.29.15s.04.02.04.03c0,0,0,.02-.03.03l-.11.07v.92h.64l.15-.21.22.24Z"/>
    <path class="cls-5" d="m45.49,603.07s.03.03.03.04-.02.01-.05.01h-.93v.39c0,.1,0,.17,0,.21v.11s-.02.05-.07.07c-.05.02-.08.03-.09.03s-.02-.01-.02-.04v-.16c0-.06.01-.14.01-.25v-.36h-.96c-.05.24-.15.42-.32.54-.16.12-.42.2-.78.24v-.05c.31-.07.53-.16.67-.26.14-.1.22-.26.26-.46h-.64c-.09,0-.17.01-.23.04l-.1-.13c.11,0,.2.01.26.01h.73c.01-.11.02-.22.02-.33l.22.07s.02.01.02.02,0,.02-.02.03l-.07.06c0,.05,0,.11-.02.16h.94c0-.08,0-.19,0-.32l.23.1s.02.01.02.02,0,.01-.02.02l-.06.04v.14h.6l.14-.18.22.21Zm-1.53-2.01s.02.02.02.03c0,0-.01,0-.04,0h-.69c.14.09.21.17.21.23,0,.04,0,.08-.03.11s-.04.04-.07.04-.05-.03-.06-.1c-.01-.07-.06-.16-.15-.28h-.23c-.22.3-.42.52-.58.66l-.03-.03c.3-.37.54-.74.72-1.12l.24.12s.02.01.02.02-.01,0-.04.01c-.02,0-.05.01-.09.04-.03.02-.06.05-.08.08-.02.03-.06.08-.1.15h.68l.11-.15.18.19Zm.77.48l.09-.12.19.18s.02.02.02.03c0,0,0,.02-.02.02l-.09.05v.55c0,.16,0,.28,0,.35,0,.07,0,.12,0,.12,0,.03-.02.06-.07.08-.04.02-.07.03-.08.03s-.02-.02-.02-.05v-.08h-1.71s0,.04,0,.06c0,.02-.03.03-.06.05-.04.02-.06.02-.08.02s-.02-.01-.02-.03,0-.04,0-.07c0-.09.01-.21.01-.38v-.59c0-.14,0-.26-.01-.37l.22.16h1.62Zm.04.35v-.28h-1.71v.28h1.71Zm0,.36v-.28h-1.71v.28h1.71Zm0,.36v-.29h-1.71v.29h1.71Zm-1.02-1.12c.23-.26.42-.56.58-.91l.21.11s.04.02.04.02-.01,0-.04.01c-.04,0-.09.04-.14.11-.05.07-.09.13-.14.19h.87l.13-.19.22.22s.02.02.02.03-.01.01-.03.01h-.88c.15.09.23.17.23.25,0,.03,0,.05-.02.07-.01.02-.04.03-.07.03s-.06-.02-.07-.06c-.04-.1-.1-.2-.18-.29h-.28c-.14.16-.27.3-.41.42l-.04-.03Z"/>
    <path class="cls-5" d="m46.27,603.86c.16-.13.26-.22.29-.29.03-.07.05-.13.05-.2,0-.05-.03-.08-.09-.08s-.12-.02-.16-.05c-.04-.03-.07-.07-.07-.12s.02-.09.05-.13.08-.06.14-.06c.08,0,.15.04.22.11.06.07.1.16.1.27s-.04.22-.12.33c-.08.12-.19.22-.34.3l-.06-.08Z"/>
    <path class="cls-5" d="m52.47,602.29s.02.03.02.04-.01.02-.04.02h-1.19c-.19.12-.39.23-.58.33h.95l.08-.12.21.14s.03.02.03.03c0,0,0,.02-.03.03l-.08.04v.47c0,.09,0,.16,0,.23v.17s-.02.07-.06.09-.08.03-.09.03-.02-.01-.02-.04v-.17h-1.34v.15s0,.04-.01.05c0,0-.03.02-.06.03-.03.01-.06.02-.07.02s-.03-.02-.03-.07v-.21c0-.09.01-.18.01-.27v-.34c-.28.13-.58.25-.91.35v-.05c.31-.13.61-.27.91-.42,0-.07,0-.15-.01-.24l.17.11h.1c.17-.09.36-.19.58-.33h-1.39c-.09,0-.17.01-.23.04l-.1-.12c.08,0,.17.01.26.01h1.12v-.32h-.57c-.09,0-.16.01-.22.04l-.09-.12c.07,0,.15.01.25.01h.65v-.09c0-.06,0-.15,0-.26l.22.08s.02.01.02.02c0,0,0,.02-.01.02l-.06.04v.2h.29l.11-.15.17.18s.02.02.02.03c0,0-.01.01-.03.01h-.56v.32h.29c.39-.24.71-.49.96-.74l.17.16s.02.02.02.03c0,0-.02,0-.06,0s-.07,0-.09,0c-.02,0-.04.02-.06.03-.2.16-.43.33-.7.49h.75l.14-.18.2.2Zm-.51-1.51s.02.02.02.03,0,.02-.02.03l-.09.06v.29c0,.09,0,.16,0,.2v.1s-.01.06-.06.08c-.05.02-.08.03-.09.03s-.02-.01-.02-.04v-.04h-1.59v.1s0,.05-.02.06c-.01.01-.03.02-.06.03-.03.01-.05.02-.07.02s-.03-.02-.03-.07v-.36s.01-.34.01-.34c0-.11,0-.22-.01-.33l.21.14h1.52l.09-.11.2.14Zm-.26.31v-.26h-1.59v.26h1.59Zm0,.34v-.26h-1.59v.26h1.59Zm-.03,1.63v-.32h-1.14l-.2.09v.22h1.34Zm0,.42v-.34h-1.34v.34h1.34Z"/>
    <path class="cls-5" d="m53.73,600.73s.03.02.03.03c0,0-.01.02-.04.04-.03.01-.05.03-.06.04-.01.01-.05.1-.11.26-.06.16-.14.33-.22.51l.12.05s.03.02.03.03c0,0,0,.02-.02.03l-.07.07v1.37c0,.16,0,.29,0,.38v.21s-.02.07-.06.09-.08.03-.09.03-.02-.03-.02-.08v-.27c0-.11.01-.23.01-.35v-1.31c-.15.28-.3.51-.46.69l-.04-.03c.35-.58.61-1.21.78-1.9l.22.13Zm1.04.22l-.08.07v.41c0,.13,0,.22,0,.27,0,.05,0,.07,0,.08,0,.03-.02.05-.07.07-.05.02-.08.03-.09.03s-.02-.01-.02-.04v-.15h-.52v.49h.36l.09-.15.19.18s.02.02.02.03c0,.01-.01.02-.03.02h-.63v.57h.44l.1-.15.19.18s.02.03.02.04-.01.01-.03.01h-.72v.83s-.02.07-.06.08c-.04.02-.07.02-.09.02s-.02-.02-.02-.05,0-.12,0-.26,0-.32,0-.53v-1.81c0-.13,0-.28-.01-.45l.22.16h.42l.1-.14.2.14s.02.02.02.03c0,0,0,.02-.02.03Zm-.24.65v-.63h-.52v.63h.52Zm1.54,2.02c-.09,0-.16,0-.2.02s-.08.03-.1.04-.03.03-.04.03c-.03,0-.1-.05-.23-.16s-.22-.2-.28-.27c-.21.25-.55.46-1.03.62v-.05c.43-.2.75-.43.94-.69-.14-.21-.23-.5-.28-.88,0,0-.02,0-.03.01l-.1-.13c.11,0,.2.01.26.01h.47l.11-.14.2.16s.02.02.02.03-.01.02-.04.03-.05.03-.07.05c-.02.02-.04.05-.05.1-.1.34-.2.59-.31.75.19.22.45.36.77.43v.04Zm-.28-2.66l-.09.06v.4c0,.12,0,.2,0,.25,0,.05,0,.08,0,.09,0,.04-.02.06-.07.08-.05.02-.08.02-.09.02s-.02-.01-.02-.03v-.14h-.37c-.09,0-.17.01-.23.04l-.1-.13c.08,0,.16.01.26.01h.45v-.64h-.32c-.09,0-.17.01-.23.04l-.1-.13c.11,0,.2.01.26.01h.33l.12-.16.21.16s.03.03.03.03c0,0,0,.02-.03.03Zm-.31,1.29h-.42s-.1,0-.14.01c.06.31.17.57.3.76.12-.2.21-.46.26-.78Z"/>
    <path class="cls-5" d="m57.97,601.33s.05.05.05.06-.02.02-.06.02h-1.02c0,.15,0,.33-.01.54h.48l.12-.14.22.15s.03.02.03.03c0,0,0,.02-.03.03l-.11.06c-.04.62-.06.98-.07,1.08s-.04.18-.07.24c-.04.06-.09.11-.16.15-.07.04-.11.06-.12.06s-.02,0-.03-.03c-.02-.06-.05-.11-.09-.15-.05-.04-.14-.08-.27-.12v-.05c.19.04.31.06.39.06s.12-.02.15-.07c.02-.05.04-.16.06-.34.02-.18.03-.48.04-.9h-.54c-.02.42-.07.76-.15,1.01s-.25.52-.52.78l-.04-.03c.27-.34.43-.68.48-1.01.05-.33.08-.79.07-1.36h-.22c-.09,0-.17.01-.23.04l-.1-.13c.11,0,.2.01.26.01h1.16l.15-.18.19.17Zm-1.05-.64c.14.07.25.14.33.2.07.06.11.13.11.2,0,.05-.01.09-.04.13-.03.04-.06.05-.09.05s-.05,0-.06-.03c-.01-.02-.02-.05-.02-.1,0-.14-.09-.28-.25-.42l.02-.04Zm2.61,2.87c-.09,0-.16,0-.21.02-.05.01-.08.03-.1.06s-.03.04-.04.04c-.02,0-.11-.07-.27-.21-.16-.14-.28-.26-.37-.38-.31.33-.76.59-1.32.78v-.05c.57-.28.99-.57,1.23-.88-.15-.25-.26-.63-.32-1.14-.13.29-.24.52-.34.69l-.04-.03c.3-.7.51-1.34.61-1.91l.25.15s.03.02.03.03c0,.01-.02.02-.05.02-.03,0-.06.02-.08.03-.02.02-.03.04-.04.08-.05.17-.1.33-.16.49h.81l.15-.18.21.2s.04.04.04.05-.02.02-.05.02h-.43c-.09.77-.21,1.27-.39,1.51.11.16.24.28.37.36s.3.15.51.18v.06Zm-.69-2.11h-.56c-.02.05-.05.13-.09.24.07.46.19.84.36,1.12.15-.28.25-.73.29-1.35Z"/>
    <path class="cls-5" d="m60.73,600.73s.03.02.03.03c0,0-.01.02-.04.04-.03.01-.05.03-.06.04-.01.01-.05.1-.11.26-.06.16-.14.33-.22.51l.12.05s.03.02.03.03c0,0,0,.02-.02.03l-.07.07v1.37c0,.16,0,.29,0,.38v.21s-.02.07-.06.09-.08.03-.09.03-.02-.03-.02-.08v-.27c0-.11.01-.23.01-.35v-1.31c-.15.28-.3.51-.46.69l-.04-.03c.35-.58.61-1.21.78-1.9l.22.13Zm1.04.22l-.08.07v.41c0,.13,0,.22,0,.27,0,.05,0,.07,0,.08,0,.03-.02.05-.07.07-.05.02-.08.03-.09.03s-.02-.01-.02-.04v-.15h-.52v.49h.36l.09-.15.19.18s.02.02.02.03c0,.01-.01.02-.03.02h-.63v.57h.44l.1-.15.19.18s.02.03.02.04-.01.01-.03.01h-.72v.83s-.02.07-.06.08c-.04.02-.07.02-.09.02s-.02-.02-.02-.05,0-.12,0-.26,0-.32,0-.53v-1.81c0-.13,0-.28-.01-.45l.22.16h.42l.1-.14.2.14s.02.02.02.03c0,0,0,.02-.02.03Zm-.24.65v-.63h-.52v.63h.52Zm1.54,2.02c-.09,0-.16,0-.2.02s-.08.03-.1.04-.03.03-.04.03c-.03,0-.1-.05-.23-.16s-.22-.2-.28-.27c-.21.25-.55.46-1.03.62v-.05c.43-.2.75-.43.94-.69-.14-.21-.23-.5-.28-.88,0,0-.02,0-.03.01l-.1-.13c.11,0,.2.01.26.01h.47l.11-.14.2.16s.02.02.02.03-.01.02-.04.03-.05.03-.07.05c-.02.02-.04.05-.05.1-.1.34-.2.59-.31.75.19.22.45.36.77.43v.04Zm-.28-2.66l-.09.06v.4c0,.12,0,.2,0,.25,0,.05,0,.08,0,.09,0,.04-.02.06-.07.08-.05.02-.08.02-.09.02s-.02-.01-.02-.03v-.14h-.37c-.09,0-.17.01-.23.04l-.1-.13c.08,0,.16.01.26.01h.45v-.64h-.32c-.09,0-.17.01-.23.04l-.1-.13c.11,0,.2.01.26.01h.33l.12-.16.21.16s.03.03.03.03c0,0,0,.02-.03.03Zm-.31,1.29h-.42s-.1,0-.14.01c.06.31.17.57.3.76.12-.2.21-.46.26-.78Z"/>
    <path class="cls-5" d="m64.57,601.08l-.12.08v1.46c0,.19,0,.32,0,.4,0,.08,0,.12,0,.13,0,.03-.02.06-.07.09s-.07.05-.08.05-.02-.02-.02-.07v-.16h-.67v.3s0,.04-.01.04-.03.02-.06.05c-.03.02-.06.03-.07.03s-.02-.02-.02-.05,0-.12,0-.25,0-.31,0-.54v-1.39c0-.15,0-.28-.01-.39l.21.15h.6l.09-.13.22.14s.03.02.03.03,0,.02-.03.03Zm-.27.86v-.86h-.67v.86h.67Zm0,1.05v-.97h-.67v.97h.67Zm2.17-1.47s.03.04.03.04c0,0-.02,0-.05,0h-.54v1.93c0,.1,0,.16-.02.19s-.06.07-.13.11c-.08.04-.12.06-.14.06s-.03,0-.03-.03c-.01-.07-.05-.12-.12-.16-.06-.04-.19-.09-.39-.14v-.06c.23.05.38.07.46.07s.14,0,.16-.02c.03-.02.04-.04.04-.08v-1.87h-.85c-.07,0-.13,0-.21.02l-.13-.12c.08,0,.16.01.26.01h.93v-.37c0-.29,0-.45,0-.51l.25.13s.04.03.04.03-.01.02-.04.03l-.08.05v.64h.22l.13-.2.21.22Zm-1.59.41c.19.15.31.25.36.33.05.07.08.13.08.19s-.01.1-.04.13-.05.05-.08.05-.05-.01-.06-.03c-.01-.02-.03-.06-.04-.13-.04-.18-.12-.34-.25-.5l.04-.03Z"/>
    <path class="cls-5" d="m67.34,601.24l-.09.06v1.8c0,.24,0,.4,0,.46v.19s-.02.07-.07.09c-.05.02-.08.03-.09.03s-.02-.02-.02-.06v-.27c.02-.11.02-.26.02-.45v-1.52c0-.16,0-.33-.01-.51l.27.13s.03.02.03.02,0,.02-.02.03Zm-.07-.66c.22.1.36.18.42.24.05.05.08.11.08.16s-.01.1-.04.13-.05.06-.07.06-.04,0-.06-.03c-.02-.02-.03-.05-.03-.09,0-.04-.03-.1-.09-.18-.06-.08-.13-.17-.23-.26l.02-.03Zm1.83,1.11l-.08.05v1.01c0,.11,0,.21,0,.27v.17s0,.07-.06.08c-.05.02-.08.03-.09.03s-.02-.01-.02-.05v-.16h-.94v.15s-.02.06-.06.08c-.04.02-.07.03-.09.03s-.02-.02-.02-.07v-.19c.01-.08.01-.17.01-.29v-1.02c0-.13,0-.25-.01-.36l.22.17h.85l.11-.14.18.15s.03.03.03.04c0,0,0,.02-.03.03Zm-.25.6v-.61h-.94v.61h.94Zm0,.74v-.66h-.94v.66h.94Zm1-2.05l-.11.07v2.38c0,.11,0,.19-.02.24-.02.05-.06.1-.13.14-.07.04-.12.06-.16.06-.01,0-.02-.01-.02-.03-.01-.05-.05-.1-.1-.13s-.16-.07-.32-.12v-.05c.22.03.36.05.43.05s.11,0,.13-.03c.02-.02.03-.05.03-.1v-2.47h-1.22c-.09,0-.17.01-.23.04l-.1-.13c.11,0,.2.01.26.01h1.22l.15-.19.2.21s.02.02.02.03c0,0,0,.01-.02.02Z"/>
    <path class="cls-5" d="m71.54,601.42s.03.03.03.03c0,0-.02.02-.05.02-.03,0-.06.02-.08.05-.33.42-.61.76-.84,1.02l.89-.1v.04c-.41.11-.66.18-.75.2-.09.03-.15.05-.17.07-.02.01-.04.02-.05.02,0,0-.02,0-.02-.02l-.12-.2c.07-.01.13-.04.18-.08.05-.04.13-.13.23-.28.11-.15.2-.29.29-.44-.23.04-.39.07-.47.09-.08.02-.13.04-.17.07-.04.02-.06.03-.06.03s-.01,0-.02-.02l-.1-.21c.07-.01.13-.03.15-.04.03-.02.07-.07.13-.15.06-.08.13-.21.24-.4s.18-.35.24-.49l.21.16s.03.02.03.03c0,0-.01.02-.03.02-.02,0-.04.01-.06.02s-.03.01-.04.02c-.01,0-.03.03-.05.06l-.6.76h.64c.12-.22.2-.36.23-.44l.2.15Zm.08,1.54l-.8.34c-.13.06-.22.1-.27.12-.05.03-.08.05-.09.07s-.03.03-.03.03c0,0-.02,0-.02-.02l-.1-.16,1.31-.42v.05Zm1.75-.02c0,.14,0,.25.01.32s.04.12.08.13c.02,0,.02.01.02.02s-.02.05-.05.1c-.03.06-.08.1-.15.13-.07.03-.19.04-.38.04s-.3-.02-.35-.07c-.05-.05-.07-.13-.07-.26v-1.19l-.33.03c-.01.49-.09.84-.23,1.05s-.44.4-.88.57l-.02-.04c.29-.16.5-.3.63-.42.13-.12.22-.27.26-.43.04-.17.07-.4.07-.72-.2.02-.32.05-.37.08-.01,0-.02.01-.03.01s-.01,0-.02-.02l-.12-.21c.06,0,.11,0,.16-.04.05-.03.14-.11.27-.26.12-.14.25-.31.37-.5l.21.13s.02.02.02.03-.02.01-.05.02-.06.02-.08.04l-.66.61,1.31-.04c-.11-.17-.25-.31-.41-.43l.02-.04c.18.1.33.19.43.26.1.08.17.14.21.19s.06.11.06.16,0,.09-.02.12-.03.04-.06.04c-.05,0-.09-.03-.12-.1-.01-.04-.04-.09-.08-.15l-.39.04v1.21c0,.06,0,.1.02.12s.04.04.08.05c.04,0,.11.01.2.01s.17-.01.21-.03c.04-.02.08-.07.1-.15.02-.08.04-.22.06-.42h.04Zm.09-1.73s.03.04.03.05-.02.02-.05.02h-1.62c-.09,0-.17.01-.23.04l-.1-.13c.11,0,.2.01.26.01h1.34l.16-.2.22.21Zm-1.32-.6c.18.08.3.14.37.2.06.06.09.11.09.16s-.01.09-.03.12c-.02.03-.05.05-.07.05s-.04,0-.05-.02c-.01-.01-.02-.05-.04-.12-.02-.06-.05-.13-.11-.19-.05-.07-.11-.12-.16-.16v-.04Z"/>
    <path class="cls-5" d="m76.97,602.01s.03.04.03.05c0,.01-.02.02-.05.02h-2.85c-.1,0-.17.01-.23.04l-.1-.13c.11,0,.2.01.26.01h2.55l.16-.23.24.25Z"/>
    <path class="cls-5" d="m78.95,602.51l-.86.64c-.15.11-.25.21-.3.3,0,.02-.02.02-.03.02,0,0-.02,0-.03-.02l-.16-.2c.1-.07.16-.14.16-.2v-1.8c0-.2,0-.37-.01-.51l.26.13s.03.02.03.03c0,0,0,.02-.02.04l-.09.08v2.06l1.03-.63.03.05Zm.82.16c.2.13.34.24.43.32.09.08.15.15.18.21.03.06.04.11.04.17s0,.1-.03.14c-.02.04-.04.06-.07.06s-.05,0-.06-.03c-.02-.02-.04-.07-.06-.14-.07-.22-.22-.43-.46-.64-.1.23-.28.44-.54.61-.27.18-.6.32-1.01.42l-.02-.05c.24-.08.45-.18.64-.29s.36-.22.49-.34c.13-.12.23-.25.29-.4.06-.14.1-.35.14-.64.03-.29.06-.73.08-1.33l.26.13s.04.02.04.03c0,0-.01.02-.04.04l-.09.06c-.04.58-.08.97-.1,1.19-.03.22-.06.38-.11.51Zm-1.26-1.89c.32.22.48.41.48.56,0,.06-.02.12-.05.16-.03.04-.06.06-.1.06s-.06-.01-.06-.03c0-.02-.01-.07-.02-.14-.01-.19-.11-.39-.28-.58l.03-.03Z"/>
    <path class="cls-5" d="m80.79,601.1h1.35v.06c-.08.14-.22.5-.43,1.07-.2.58-.32.93-.34,1.06h-.12c.11-.48.34-1.14.68-1.97h-.95c-.06,0-.09.01-.09.04l-.03.15h-.08v-.41Z"/>
    <path class="cls-5" d="m85,600.88l-.12.09v2.51c0,.08-.01.14-.04.18-.03.04-.07.07-.13.11-.06.04-.1.05-.11.05s-.02-.01-.02-.03c-.01-.07-.05-.13-.1-.17-.05-.04-.17-.08-.34-.13v-.05c.21.04.35.05.41.05s.11,0,.13-.02.04-.05.04-.1v-.91h-1.33c-.03.33-.11.6-.24.8-.13.21-.35.4-.64.59l-.03-.05c.23-.2.39-.38.5-.54.1-.16.17-.34.21-.55.03-.21.05-.51.05-.91v-.71c0-.19,0-.34-.01-.46l.21.18h1.21l.12-.17.23.15s.03.02.03.03c0,0-.01.02-.03.04Zm-.28,1.52v-.7h-1.31v.22c0,.24-.01.4-.02.48h1.33Zm0-.78v-.72h-1.29v.72s1.29,0,1.29,0Z"/>
    <path class="cls-5" d="m87.02,603.3c-.12,0-.26-.01-.41-.01s-.29,0-.41.01v-.06l.18-.03c.08-.02.12-.06.12-.14v-1.73l-.42.27-.05-.07c.16-.11.35-.27.58-.48h.12v2.01c0,.08.04.13.12.14l.16.03v.06Z"/>
    <path class="cls-5" d="m88.56,601.06h.08v1.45h.37v.16h-.37v.67h-.23v-.67h-.9v-.12l.42-.61.63-.89Zm-.15,1.45v-1.08c-.32.44-.56.8-.73,1.08h.73Z"/>
    <path class="cls-5" d="m91.93,600.96s.03.02.03.04-.02.03-.05.04l-.12.06v1.77c0,.17,0,.31,0,.41v.25s-.02.07-.07.09c-.05.02-.08.03-.1.03s-.02-.01-.02-.04v-.33h-1.61v.32s0,.04-.01.05c0,0-.03.02-.06.04-.03.02-.06.02-.08.02s-.03-.02-.03-.05,0-.12,0-.27c0-.15,0-.32,0-.52v-1.76c0-.13,0-.25-.01-.36l.24.19h1.5l.1-.16.26.18Zm-.31,1.03v-.98h-1.61v.98h1.61Zm0,1.21v-1.13h-1.61v1.13h1.61Z"/>
    <path class="cls-5" d="m95.83,601.69l-.15.11c-.02.34-.05.68-.09,1.02-.04.34-.09.56-.14.67-.05.11-.13.19-.23.25-.1.06-.17.09-.18.09s-.03-.01-.04-.04c-.02-.09-.06-.16-.11-.19-.05-.04-.18-.1-.39-.18v-.05c.27.07.46.11.58.11s.19-.04.24-.13.08-.26.12-.52c.03-.26.06-.63.08-1.12h-1.08c-.11.57-.29,1.01-.54,1.33-.25.32-.62.6-1.11.82l-.03-.05c.48-.27.82-.55,1.05-.87.22-.31.38-.72.46-1.21h-1.1c-.07.01-.15.02-.21.05l-.12-.13c.09,0,.17.01.23.01h1.2c.07-.43.11-.78.11-1.05l.29.16s.03.02.03.03,0,.02-.03.04l-.1.08c-.02.17-.06.42-.13.74h1s.14-.22.14-.22l.24.2s.02.03.02.03c0,0,0,.02-.02.03Zm-2.52-.9c.14.08.25.16.33.23.08.07.14.13.16.17s.03.08.03.12-.01.08-.04.12-.05.05-.07.05-.04-.01-.06-.04-.03-.07-.04-.12c-.04-.16-.16-.33-.35-.51l.02-.03Zm1.12,1.32c.39.2.59.37.59.53,0,.05-.01.09-.03.13s-.04.05-.07.05c-.04,0-.08-.05-.1-.15-.02-.06-.07-.14-.15-.25-.08-.11-.17-.2-.26-.27l.02-.04Z"/>
    <path class="cls-5" d="m97.27,601c-.3.84-.47,1.31-.5,1.43-.03.12-.05.23-.05.35s0,.23.02.33c.01.1.02.17.02.21,0,.15-.05.22-.14.22-.06,0-.09-.06-.09-.18,0-.06,0-.13.02-.22.01-.09.02-.17.02-.25s-.02-.14-.05-.19-.14-.08-.32-.11v-.05c.12,0,.2,0,.25-.02s.09-.04.12-.08c.03-.04.07-.11.11-.21l.52-1.25.05.02Zm-.89-.16c.13.06.24.13.33.2.09.07.14.13.16.18.02.05.03.1.03.14s-.01.08-.03.11-.05.04-.07.04-.05,0-.06-.03-.03-.06-.04-.12c-.02-.06-.05-.14-.11-.23-.06-.09-.13-.17-.22-.25l.02-.04Zm3,2.55s.02.04.02.04-.01.01-.04.01h-1.71v.26s0,.04,0,.05c0,.01-.03.02-.07.04-.04.02-.06.02-.08.02s-.02-.01-.02-.04,0-.08,0-.16c0-.08,0-.24,0-.48v-1.5c-.14.27-.31.53-.5.77l-.05-.03c.35-.52.61-1.1.79-1.74l.21.11s.04.03.04.04c0,0-.01.02-.04.03-.07.03-.11.07-.12.1s-.06.15-.16.35h1.26l.16-.2.21.23s.02.03.02.04-.02.01-.05.01h-.82v.56h.42l.16-.19.19.22s.02.03.02.04c0,0-.02.01-.06.01h-.74v.62h.44l.16-.2.2.24s.01.02.01.03c0,0-.01.01-.04.01h-.77v.68h.52l.18-.22.21.25Zm-1.07-1.49v-.56h-.66v.56h.66Zm0,.7v-.62h-.66v.62h.66Zm0,.76v-.68h-.66v.68h.66Zm-.04-2.75c.25.14.37.27.37.4,0,.05-.01.09-.04.13-.03.04-.05.05-.08.05s-.04,0-.05-.02c0-.01-.02-.04-.02-.1s-.03-.12-.07-.21-.09-.16-.14-.21l.03-.04Z"/>
    <path class="cls-5" d="m102.97,603.58c-.1.02-.18.05-.22.08-.04.03-.07.07-.09.12,0,.02-.02.03-.05.03-.34,0-.66,0-.97-.01-.31,0-.51-.02-.62-.03-.1-.01-.19-.04-.27-.07-.08-.03-.15-.08-.22-.13-.07-.06-.13-.14-.19-.24-.04-.06-.07-.09-.09-.09-.03,0-.1.07-.19.21-.09.14-.15.25-.17.31,0,.02-.01.02-.02.02s-.02,0-.02-.01l-.18-.13.53-.46v-1.1h-.28c-.07.01-.12.02-.16.05l-.11-.11c.09,0,.17,0,.22,0h.28s.09-.17.09-.17l.23.17s.02.02.02.03,0,.02-.03.03l-.11.06v1c0,.06.03.13.08.2.06.07.14.14.24.19s.23.08.38.09.31,0,.46,0c.46,0,.94-.03,1.44-.08v.05Zm-3-2.72c.11.07.21.13.28.19.07.06.12.11.14.15s.03.08.03.13-.01.09-.04.12-.05.05-.08.05-.04,0-.05-.03c-.01-.02-.03-.06-.05-.14-.04-.16-.13-.31-.27-.45l.03-.03Zm2.96,1.37s.03.04.03.05-.02.02-.05.02h-.72v.31c0,.19,0,.33,0,.42v.23s0,.03,0,.05c0,.01-.03.03-.07.04-.04.02-.07.03-.08.03s-.02-.02-.02-.07v-.25c0-.1.01-.25.01-.46v-.3h-.6c-.03.49-.29.85-.78,1.08l-.03-.03c.42-.28.63-.63.65-1.05h-.31c-.09,0-.17.01-.23.04l-.1-.13c.11,0,.2.01.26.01h.39v-.77h-.26c-.09,0-.17.01-.23.04l-.1-.13c.11,0,.2.01.26.01h.34v-.22c0-.19,0-.34-.01-.44l.25.13s.04.02.04.03-.01.02-.04.04l-.07.04v.42h.6v-.22c0-.19,0-.36-.01-.51l.26.13s.03.02.03.03c0,0-.01.02-.03.03l-.08.05v.5h.26l.14-.19.21.2s.03.04.03.05-.02.02-.05.02h-.59v.77h.37l.15-.2.22.21Zm-.9-.01v-.77h-.6v.77h.6Z"/>
    <path class="cls-5" d="m104.37,601.48s.03.03.03.03c0,0-.02.02-.06.03-.04,0-.07.02-.09.04s-.11.13-.26.34v1.38c0,.12,0,.21,0,.26v.15s-.02.08-.07.09c-.05.02-.08.03-.09.03s-.02-.02-.02-.06,0-.13,0-.27c0-.14,0-.28,0-.41v-.97c-.22.28-.42.5-.62.67l-.04-.04c.41-.47.74-.95,1-1.42l.2.14Zm0-.74s.02.02.02.03-.01.02-.04.02c-.06,0-.1.03-.13.06-.24.23-.41.39-.54.5-.12.11-.26.21-.42.31l-.03-.03c.36-.32.68-.67.94-1.04l.2.14Zm2.04,1.12s.03.04.03.05c0,0-.02.02-.05.02h-.68v1.58c0,.08,0,.13-.02.16-.02.03-.06.07-.13.11s-.12.06-.13.06-.02,0-.03-.03c-.01-.06-.04-.11-.1-.15-.05-.04-.17-.08-.34-.13l.02-.05c.22.04.36.06.42.06s.1,0,.12-.02c.02-.01.04-.05.04-.11v-1.5h-.94c-.09,0-.17.01-.23.04l-.1-.13c.11,0,.2.01.26.01h1.52l.14-.2.21.21Zm-.3-.87s.03.03.03.05-.02.02-.06.02h-1.18c-.09,0-.17.01-.23.04l-.1-.13c.11,0,.2.01.26.01h.95l.14-.2.2.21Z"/>
    <path class="cls-5" d="m108.08,602.89c-.28.27-.47.45-.55.54-.08.09-.14.18-.17.26,0,.02-.01.03-.02.03s-.02,0-.03-.01l-.2-.18c.07-.05.11-.1.13-.13.02-.03.02-.1.02-.19v-1.36h-.27c-.1.01-.17.03-.22.04l-.1-.11s.07,0,.11,0c.03,0,.1,0,.19,0h.29s.12-.17.12-.17l.22.18s.04.03.04.04-.01.02-.04.03l-.17.08v1.38l.6-.46.05.04Zm-.95-2.16c.13.07.23.13.31.18s.13.1.16.15.04.09.04.14-.01.1-.04.13-.05.05-.08.05-.04,0-.05-.02c-.01-.02-.03-.06-.05-.15-.02-.08-.06-.16-.12-.23-.05-.07-.12-.14-.2-.22l.03-.04Zm2.77,1.07s.03.03.03.04c0,0-.01.01-.04.01h-1v1.27c0,.2,0,.35,0,.45,0,.1,0,.16,0,.17,0,.04-.03.07-.08.09s-.08.03-.1.03-.02-.02-.02-.07v-.25c.01-.09.01-.23.01-.43v-1.26h-.61c-.12,0-.2,0-.24.03l-.12-.12c.09,0,.18.01.28.01h.69v-.67c0-.28,0-.45,0-.53l.29.15s.04.02.04.03c0,0,0,.02-.03.03l-.11.07v.92h.64l.15-.21.22.24Z"/>
    <path class="cls-5" d="m113.41,603.07s.03.03.03.04-.02.01-.05.01h-.93v.39c0,.1,0,.17,0,.21v.11s-.02.05-.07.07c-.05.02-.08.03-.09.03s-.02-.01-.02-.04v-.16c0-.06.01-.14.01-.25v-.36h-.96c-.05.24-.15.42-.32.54-.16.12-.42.2-.78.24v-.05c.31-.07.53-.16.67-.26.14-.1.22-.26.26-.46h-.64c-.09,0-.17.01-.23.04l-.1-.13c.11,0,.2.01.26.01h.73c.01-.11.02-.22.02-.33l.22.07s.02.01.02.02,0,.02-.02.03l-.07.06c0,.05,0,.11-.02.16h.94c0-.08,0-.19,0-.32l.23.1s.02.01.02.02,0,.01-.02.02l-.06.04v.14h.6l.14-.18.22.21Zm-1.53-2.01s.02.02.02.03c0,0-.01,0-.04,0h-.69c.14.09.21.17.21.23,0,.04,0,.08-.03.11s-.04.04-.07.04-.05-.03-.06-.1c-.01-.07-.06-.16-.15-.28h-.23c-.22.3-.42.52-.58.66l-.03-.03c.3-.37.54-.74.72-1.12l.24.12s.02.01.02.02-.01,0-.04.01c-.02,0-.05.01-.09.04-.03.02-.06.05-.08.08-.02.03-.06.08-.1.15h.68l.11-.15.18.19Zm.77.48l.09-.12.19.18s.02.02.02.03c0,0,0,.02-.02.02l-.09.05v.55c0,.16,0,.28,0,.35,0,.07,0,.12,0,.12,0,.03-.02.06-.07.08-.04.02-.07.03-.08.03s-.02-.02-.02-.05v-.08h-1.71s0,.04,0,.06c0,.02-.03.03-.06.05-.04.02-.06.02-.08.02s-.02-.01-.02-.03,0-.04,0-.07c0-.09.01-.21.01-.38v-.59c0-.14,0-.26-.01-.37l.22.16h1.62Zm.04.35v-.28h-1.71v.28h1.71Zm0,.36v-.28h-1.71v.28h1.71Zm0,.36v-.29h-1.71v.29h1.71Zm-1.02-1.12c.23-.26.42-.56.58-.91l.21.11s.04.02.04.02-.01,0-.04.01c-.04,0-.09.04-.14.11-.05.07-.09.13-.14.19h.87l.13-.19.22.22s.02.02.02.03-.01.01-.03.01h-.88c.15.09.23.17.23.25,0,.03,0,.05-.02.07-.01.02-.04.03-.07.03s-.06-.02-.07-.06c-.04-.1-.1-.2-.18-.29h-.28c-.14.16-.27.3-.41.42l-.04-.03Z"/>
    <path class="cls-5" d="m114.43,602.65c.12,0,.22.04.29.12s.12.18.12.29-.04.21-.12.29-.17.12-.29.12-.22-.04-.29-.12-.12-.17-.12-.29.04-.21.12-.29.18-.12.29-.12Zm0,.71c.09,0,.16-.03.22-.09.06-.06.09-.13.09-.22s-.03-.16-.09-.22c-.06-.06-.13-.09-.22-.09s-.16.03-.22.09-.09.13-.09.22.03.16.09.22c.06.06.13.09.22.09Z"/>
    <path class="cls-5" d="m11.62,607.5c-.17,0-.41-.01-.71-.01s-.53,0-.7.01c.04-.09.1-.18.17-.26.07-.08.18-.2.33-.35.22-.22.38-.4.48-.55.1-.15.15-.31.15-.46,0-.13-.04-.23-.12-.31s-.18-.12-.3-.12-.22.04-.32.12c-.1.08-.16.19-.2.34h-.08c.04-.21.12-.37.23-.48.12-.11.26-.17.43-.17s.31.06.43.17c.12.11.18.25.18.41s-.06.31-.17.45c-.11.14-.28.31-.5.52-.12.11-.27.27-.44.49h.82c.09,0,.15-.02.19-.05.04-.03.07-.1.11-.21h.07l-.05.45Z"/>
    <path class="cls-5" d="m12.16,607.54c-.05,0-.09-.02-.13-.05-.03-.04-.05-.08-.05-.13s.02-.09.05-.13c.04-.03.08-.05.13-.05s.09.02.13.05c.03.04.05.08.05.13s-.02.09-.05.13c-.04.03-.08.05-.13.05Z"/>
    <path class="cls-5" d="m31.43,607.73s.04.04.04.06-.02.02-.05.02h-2.81c-.09,0-.17.01-.23.04l-.1-.14c.11,0,.2.01.26.01h1.24v-2.42c0-.19,0-.34-.01-.46l.26.13s.04.02.04.03-.01.03-.03.04l-.09.07v.9h.92l.15-.19.21.21s.04.04.04.05-.02.02-.05.02h-1.28v1.61h1.13l.14-.21.23.22Z"/>
    <path class="cls-5" d="m34.92,605.48s.04.04.04.06-.02.02-.05.02h-1.76c0,.12-.02.33-.05.62h.94l.11-.17.23.18s.03.03.03.03c0,0,0,.02-.03.03l-.13.07c0,.26-.03.52-.05.77-.03.25-.05.42-.07.51s-.06.16-.11.22-.1.1-.17.13c-.07.03-.11.05-.12.05s-.03,0-.03-.03c-.02-.13-.16-.23-.41-.29v-.06c.22.04.36.07.45.07s.14-.02.17-.07c.03-.05.06-.19.1-.43.04-.24.06-.55.07-.93h-.99c-.05.47-.17.85-.37,1.14s-.51.53-.94.72l-.02-.04c.31-.17.56-.38.75-.63.19-.25.31-.54.36-.88s.08-.67.08-1.01h-.83c-.09,0-.17.01-.23.04l-.1-.13c.11,0,.2.01.26.01h2.47l.14-.23.25.23Zm-1.91-.69c.11.04.23.09.36.17.12.08.19.17.19.27,0,.05-.01.09-.04.13-.03.04-.06.05-.1.05s-.07-.04-.08-.11c-.02-.16-.14-.31-.35-.48l.02-.04Z"/>
    <path class="cls-5" d="m37.75,604.69s.03,0,.04.02c.02.02.02.03.02.04s-.02.03-.05.05c-.18.13-.27.24-.27.34,0,.05.03.08.08.1.07.03.11.08.11.15,0,.04-.01.08-.04.12-.03.03-.07.05-.13.05s-.11-.02-.16-.08c-.05-.05-.07-.11-.07-.19,0-.13.07-.26.21-.4.14-.14.22-.21.26-.21Zm.54,0s.03,0,.04.02c.02.02.02.03.02.04s-.02.03-.05.05c-.18.13-.27.24-.27.34,0,.05.03.08.08.1.07.03.11.08.11.15,0,.04-.01.08-.04.12-.03.03-.07.05-.13.05s-.11-.02-.16-.08c-.05-.05-.07-.11-.07-.19,0-.13.07-.26.2-.4.14-.14.22-.21.26-.21Z"/>
    <path class="cls-5" d="m41.97,606.21s.03.04.03.05c0,.01-.02.02-.05.02h-2.85c-.1,0-.17.01-.23.04l-.1-.13c.11,0,.2.01.26.01h2.55l.16-.23.24.25Z"/>
    <path class="cls-5" d="m45.43,605.36s.04.04.04.05c0,.01-.02.02-.05.02h-2.8c-.09,0-.17.01-.23.04l-.1-.13c.11,0,.2.01.26.01h2.52l.15-.2.23.2Zm-.43,1.04s.04.04.04.06c0,.01-.02.02-.05.02h-1.86c-.09,0-.17.01-.23.04l-.1-.13c.11,0,.2.01.26.01h1.61l.13-.18.21.18Zm-.02-.52s.04.04.04.06-.02.02-.05.02h-1.83c-.09,0-.17.01-.23.04l-.1-.13c.11,0,.2.01.26.01h1.59l.13-.17.2.17Zm-.09,1.11l-.09.07v.46c0,.11,0,.2,0,.28,0,.08,0,.11,0,.12,0,.03-.02.06-.07.09-.05.03-.08.04-.09.04s-.02-.02-.02-.05v-.27h-1.49v.21s-.02.06-.07.08c-.04.02-.07.03-.09.03s-.02-.02-.02-.05v-.19c0-.08.01-.17.01-.27v-.43c0-.13,0-.25-.01-.36l.22.17h1.37l.11-.15.21.16s.03.03.03.04c0,0,0,.02-.03.03Zm-.26.66v-.66h-1.49v.66h1.49Zm-.98-2.85c.13.06.24.12.32.17s.12.12.12.19c0,.04-.01.08-.04.12s-.05.05-.08.05-.04,0-.05-.02c-.01-.02-.02-.06-.04-.12-.03-.14-.12-.26-.26-.36l.03-.04Z"/>
    <path class="cls-5" d="m46.27,604.69c.06,0,.11.03.16.08.04.05.07.12.07.19s-.03.16-.09.26c-.06.1-.14.19-.24.27-.1.08-.16.12-.19.12,0,0-.02,0-.03-.02-.01-.01-.02-.02-.02-.04,0-.01.01-.03.04-.06.2-.15.29-.27.29-.38,0-.05-.02-.08-.07-.1-.07-.03-.1-.08-.1-.14,0-.05.02-.09.05-.13.03-.04.08-.06.13-.06Zm.53,0c.06,0,.12.03.16.08s.06.12.06.19-.03.15-.08.24c-.05.09-.13.18-.23.27-.1.09-.17.13-.2.13,0,0-.02,0-.03-.01-.01,0-.02-.02-.02-.03,0-.03.01-.05.04-.07.2-.15.29-.28.29-.38,0-.05-.02-.08-.07-.1-.07-.03-.1-.08-.1-.15,0-.05.02-.09.05-.13.03-.04.07-.05.12-.05Z"/>
    <path class="cls-5" d="m50.75,605.63s.03.04.03.05-.01.02-.04.02h-.59v.35c.14.06.24.11.32.16.08.05.13.1.16.13.03.04.04.08.04.11s0,.07-.03.1c-.02.03-.04.04-.07.04s-.06-.03-.08-.08c-.02-.05-.06-.12-.12-.2s-.14-.15-.22-.21v1.11c0,.25,0,.41,0,.49v.22s-.02.07-.07.09-.08.03-.09.03-.02-.02-.02-.06v-.33c.02-.13.02-.28.02-.44v-1.06c-.15.4-.36.78-.62,1.13l-.05-.03c.31-.52.54-1.04.67-1.55h-.26c-.09,0-.17.01-.23.04l-.1-.13c.11,0,.2.01.26.01h.34v-.3c0-.16,0-.33-.01-.51l.26.12s.04.02.04.04-.01.03-.04.04l-.09.05v.57h.28l.13-.17.2.18Zm1.64-.31l-.13.08v1.87c0,.17,0,.31,0,.41v.25s-.01.07-.06.09-.08.03-.09.03-.02-.02-.02-.05v-.33h-1.08v.27s-.02.06-.06.08-.07.03-.09.03-.02-.02-.02-.05,0-.12,0-.27c0-.15,0-.32,0-.52v-1.8c0-.13,0-.25-.01-.36l.25.19h.96l.1-.15.24.16s.03.03.03.04c0,0,0,.02-.03.03Zm-.29.69v-.69h-1.08v.69h1.08Zm0,.76v-.69h-1.08v.69h1.08Zm0,.83v-.76h-1.08v.76h1.08Z"/>
    <path class="cls-5" d="m56,607.78c-.12,0-.2,0-.26.03-.05.02-.1.05-.13.11,0,.01-.02.02-.03.02-.03,0-.14-.07-.33-.2-.19-.13-.34-.29-.47-.47-.13-.18-.23-.42-.31-.72h-.08c-.06.35-.23.66-.5.92-.27.26-.64.46-1.1.59v-.04c.45-.2.79-.41,1-.64.21-.23.36-.5.43-.83h-1.09c-.09,0-.17.01-.23.04l-.1-.13c.11,0,.2.01.26.01h1.18c.03-.19.05-.45.05-.76h-.95c-.09,0-.17.01-.23.04l-.1-.13c.11,0,.2.01.26.01h1.27c.18-.24.34-.5.49-.78l.21.16s.02.02.02.03-.01.01-.03.02c-.05,0-.12.05-.21.14-.08.08-.22.23-.39.44h.68l.15-.2.23.2s.04.04.04.05c0,.02-.02.03-.05.03h-1.19c0,.23-.02.48-.06.76h1.05l.15-.2.23.2s.04.04.04.05-.02.02-.05.02h-1.26c.11.35.29.63.54.84.25.21.55.33.9.37v.04Zm-2.52-2.88c.23.08.39.16.48.23s.15.15.15.24c0,.04-.01.08-.03.11s-.05.05-.08.05c-.04,0-.06-.03-.08-.08-.05-.19-.21-.36-.46-.51l.02-.04Z"/>
    <path class="cls-5" d="m57.1,606.48c0-.1.01-.21.01-.33v-.33c-.26.32-.54.58-.85.77l-.03-.03c.29-.23.52-.48.7-.74h-.27c-.09,0-.17.01-.23.04l-.1-.13c.11,0,.2.01.26.01h.53v-.64c0-.09,0-.19-.01-.3l.25.13s.02.02.02.02,0,.01-.02.02l-.09.05v.72h.4l.13-.16.21.2s.02.03.02.04-.02.01-.05.01h-.72v.19c.38.11.57.23.57.36,0,.03,0,.05-.02.08-.01.02-.03.03-.05.03s-.04,0-.05-.01c-.01,0-.03-.03-.05-.06-.09-.13-.23-.25-.4-.34v.41s-.03.06-.08.07c0,0,0,0-.01,0,0,0-.01.01-.03.02l-.08.02-.09.19.55-.02.08-.11.2.16s.02.02.02.03c0,0,0,.01-.03.02-.06,0-.11.04-.13.08-.1.21-.19.37-.28.48.08.04.15.08.22.12.06.05.1.08.12.11.02.03.03.06.03.09s0,.06-.02.08-.03.03-.06.03-.05-.02-.09-.06c-.03-.04-.08-.09-.14-.14-.06-.05-.11-.09-.17-.13-.18.17-.51.33-.99.5l-.02-.05c.42-.18.71-.36.89-.52-.13-.07-.32-.14-.55-.22.08-.13.14-.25.2-.37h-.23c-.1.01-.17.03-.23.05l-.07-.12c.07.01.15.01.25.01h.32c.04-.13.08-.25.12-.38l.13.08Zm-.65-1.43c.13.07.23.13.3.19.07.06.1.13.1.2,0,.04,0,.06-.03.09-.02.02-.04.04-.07.04-.03,0-.06-.04-.07-.11-.02-.12-.1-.24-.24-.37l.02-.03Zm1.11,1.76l-.61.02-.16.36c.18.04.34.09.48.14.11-.13.21-.31.29-.52Zm1.97.97v.04c-.05,0-.09,0-.11,0-.09,0-.16.03-.21.08,0,0-.01,0-.02,0-.03,0-.11-.06-.24-.19-.13-.13-.25-.28-.35-.46-.25.35-.64.63-1.19.84v-.05c.52-.27.89-.58,1.11-.94-.14-.27-.26-.66-.36-1.17-.06.14-.13.28-.22.41l-.04-.02c.23-.51.39-1.03.49-1.55l.24.14s.02.02.02.02c0,0-.02.01-.05.02-.03,0-.05.02-.06.03-.01.02-.04.08-.09.21l-.15.37h.86l.13-.16.2.19s.02.03.02.03c0,0-.01.01-.04.01h-.34c-.11.64-.26,1.13-.46,1.46.2.29.48.52.85.67Zm-1.55-2.62s.03.02.03.02-.02.01-.05.02c-.03,0-.06.01-.09.03-.03.01-.07.05-.12.1-.05.05-.13.14-.24.27l-.04-.03c.11-.16.22-.34.3-.52l.21.12Zm.97.49h-.67l-.07.17c.09.48.22.86.39,1.14.17-.33.29-.77.35-1.32Z"/>
    <path class="cls-5" d="m61.03,606.15l-.54.32v1.21c0,.08,0,.14-.02.17-.01.04-.05.08-.1.11s-.1.05-.12.05c-.01,0-.02,0-.02-.03,0-.06-.03-.11-.07-.14-.04-.04-.13-.07-.26-.12v-.04c.18.03.28.05.32.05s.07,0,.09-.01c.02,0,.02-.03.02-.06v-1.1l-.11.06c-.15.09-.24.16-.28.21-.01.02-.02.03-.03.03,0,0-.02,0-.02-.01l-.15-.16.59-.27v-.74h-.19c-.09,0-.17.01-.23.04l-.1-.13c.11,0,.2.01.26.01h.26v-.33c0-.16,0-.33-.01-.51l.24.12s.03.02.03.03c0,0-.01.02-.03.03l-.06.04v.62h.2l.12-.17.18.19s.02.03.02.04c0,0-.01.01-.04.01h-.48v.66l.52-.24.02.04Zm1.95.19s.03.03.03.04-.01.02-.04.02h-.83v.52h.35l.1-.15.22.16s.03.03.03.03c0,0-.01.02-.03.03l-.09.06v.44c0,.08,0,.17,0,.25v.2s-.02.06-.06.08-.07.03-.09.03-.02-.01-.02-.04v-.24h-.97v.17s0,.05-.01.05-.03.02-.06.03-.06.02-.07.02-.02-.01-.02-.04,0-.08,0-.14c0-.06,0-.16,0-.28v-.48c0-.12,0-.24-.01-.36l.21.16h.36v-.52h-.71c-.04.41-.13.76-.27,1.05-.14.29-.28.5-.42.62l-.03-.03c.15-.2.27-.44.38-.72.1-.28.17-.58.19-.9s.04-.61.04-.87,0-.49,0-.7l.22.19h1.17l.09-.15.2.15s.03.03.03.04c0,0-.01.02-.03.03l-.09.06v.28c0,.12,0,.2,0,.24s0,.06,0,.08c0,.03-.02.06-.07.08-.05.02-.08.03-.09.03s-.02-.02-.02-.05v-.12h-1.28c0,.27-.02.47-.03.61h.7v-.07c0-.19,0-.35-.01-.48l.26.15s.04.02.04.03-.01.02-.03.03l-.09.05v.29h.54l.12-.17.19.19Zm-.4-.7v-.51h-1.28c0,.25,0,.42,0,.51h1.28Zm-.04,2.05v-.7h-.97v.7h.97Z"/>
    <path class="cls-5" d="m64.65,605.87s.02.03.02.04c0,0-.01.01-.04.01h-.56v1.16l.56-.13v.06s-.71.24-.71.24c-.25.08-.4.15-.45.2-.01.01-.02.02-.03.02,0,0-.02,0-.03-.02l-.14-.17.64-.15v-1.2h-.31c-.08,0-.15.01-.21.04l-.09-.12c.1,0,.18.01.23.01h.38v-.56c0-.15,0-.31-.01-.48l.26.13s.04.02.04.03-.01.02-.04.04l-.08.06v.78h.27l.13-.19.17.21Zm1.8-.33s.02.02.02.03c0,0-.01.02-.03.03l-.12.07c0,.3-.03.7-.06,1.19-.03.49-.07.79-.12.89s-.12.18-.22.24c-.1.06-.16.09-.17.09s-.02-.01-.03-.03c-.02-.07-.07-.13-.15-.18-.07-.05-.2-.09-.39-.14v-.06c.28.05.47.08.56.08s.16-.02.19-.05c.03-.03.06-.1.09-.21s.05-.32.07-.63.04-.74.05-1.28h-1.13c-.19.4-.36.7-.51.9l-.06-.03c.3-.53.52-1.08.69-1.65l.23.14s.03.03.03.03c0,0-.01.02-.04.03-.07.03-.11.05-.13.09l-.19.42h1.04l.11-.17.24.19Zm-.48,1.24l-.81.33c-.12.05-.21.08-.25.11s-.08.04-.09.07c-.02.02-.03.03-.04.03,0,0-.02,0-.04-.02l-.17-.14,1.39-.42v.05Zm-.93-.79c.18.1.3.18.37.25.07.07.1.13.1.18s-.01.1-.04.13c-.02.04-.05.05-.08.05-.04,0-.07-.02-.08-.07-.02-.19-.12-.36-.31-.51l.02-.05Z"/>
    <path class="cls-5" d="m69.49,606.49l.15-.21.23.24s.02.03.02.03c0,0-.01.01-.03.01h-1.31c.35.52.84.83,1.46.92v.05c-.1,0-.17,0-.22.03-.05.02-.09.05-.12.1,0,0-.01.01-.02.01-.04,0-.19-.09-.45-.29s-.5-.46-.71-.82h-.05v.68c0,.2,0,.37,0,.5,0,.14,0,.21,0,.22,0,.01,0,.02-.01.04s-.03.03-.07.04c-.04.02-.06.02-.07.02-.02,0-.03-.01-.03-.04s0-.14,0-.34,0-.35,0-.45v-.64c-.19.26-.4.49-.63.68-.23.19-.51.38-.85.56l-.04-.05c.57-.37,1.01-.78,1.34-1.22h-.93c-.09,0-.17.01-.23.04l-.1-.13c.11,0,.2.01.26.01h1.18v-1.06h-.99c-.09,0-.17.01-.23.04l-.1-.13c.11,0,.2.01.26.01h1.07c0-.25,0-.44-.01-.57l.26.1s.03.02.03.03,0,.02-.02.04l-.09.07v.33h.95l.15-.2.23.23s.03.03.03.04c0,0-.01.01-.04.01h-1.32v1.06h1.05Zm-2.12-.83c.12.06.24.13.34.21s.15.16.15.24c0,.05-.01.09-.04.12-.03.03-.05.05-.07.05s-.04,0-.05-.02c0-.01-.02-.04-.02-.1,0-.05-.04-.12-.1-.21s-.14-.18-.23-.26l.03-.04Zm1.37.71c.2-.24.35-.51.46-.79l.24.18s.01.02.01.02c0,0-.01.02-.04.02-.02,0-.05.01-.07.02-.02.01-.06.05-.11.11l-.45.48-.05-.03Z"/>
    <path class="cls-5" d="m72.98,605.5l-.09.05v1.69c0,.17,0,.31,0,.41v.25s-.01.07-.06.09-.08.03-.09.03-.02-.01-.02-.04v-.27h-1.67v.24s0,.05-.01.05c0,0-.03.02-.06.03-.03.01-.06.02-.07.02s-.02-.02-.02-.05,0-.12,0-.27c0-.15,0-.32,0-.52v-1.63c0-.13,0-.25-.01-.36l.22.19h.42l.13-.62.25.08s.05.02.05.03c0,0,0,.02-.03.03-.05.03-.1.07-.14.13-.04.06-.1.18-.18.36h1.06l.12-.17.21.17s.04.04.04.05c0,0-.01.02-.04.04Zm-.26.64v-.65h-1.67v.65h1.67Zm0,.72v-.64h-1.67v.64h1.67Zm0,.77v-.69h-1.67v.69h1.67Z"/>
    <path class="cls-5" d="m76.28,606.57l-.23.02s-.07.01-.08.03c-.02.01-.02.04-.02.07v.39c0,.08,0,.14,0,.17,0,.03-.02.06-.03.08s-.07.05-.16.09-.2.07-.32.09c-.12.02-.25.03-.38.03-.38,0-.69-.1-.91-.3-.23-.2-.34-.47-.34-.79,0-.35.13-.63.38-.85.25-.22.57-.33.97-.33.31,0,.57.06.78.17l.03.42h-.05c-.15-.34-.38-.51-.7-.51s-.59.1-.77.29c-.19.19-.28.45-.28.77,0,.28.1.53.29.74.19.21.43.32.71.32.35,0,.52-.12.52-.37v-.39s0-.06-.03-.07c-.02-.01-.04-.02-.08-.02l-.34-.02v-.06c.18,0,.33.01.44.01.23,0,.44,0,.62-.01v.06Z"/>
    <path class="cls-5" d="m77.11,607.5c-.07,0-.2-.01-.38-.01s-.31,0-.39.01v-.06l.2-.04c.07-.01.11-.06.11-.13v-.82c0-.06-.01-.1-.04-.12s-.08-.05-.17-.07v-.05c.17-.04.29-.13.36-.25h.06v1.32s0,.06.02.08c.01.02.03.03.06.04l.18.04v.06Zm-.38-2.25s.08.02.11.05.05.07.05.1-.02.07-.05.1c-.03.03-.07.04-.11.04-.04,0-.07-.01-.1-.04-.03-.03-.04-.06-.04-.1s.02-.07.05-.1.07-.05.1-.05Z"/>
    <path class="cls-5" d="m77.67,605.8h.04v.37s.48-.01.48-.01v.13h-.48v.85c0,.1.01.18.04.23.03.05.08.07.14.07.08,0,.17-.03.29-.1l.03.05c-.05.06-.11.1-.17.12-.06.02-.15.04-.26.04-.12,0-.2-.03-.24-.09-.04-.06-.06-.18-.06-.35v-.79h-.19s-.05,0-.05-.02c0-.02.02-.03.05-.05.1-.04.17-.09.22-.15.05-.05.1-.15.15-.29Z"/>
    <path class="cls-5" d="m78.47,605.55c0-.06-.01-.11-.04-.13-.03-.02-.1-.05-.22-.08v-.04c.1,0,.23-.05.38-.13h.08v1.24c.17-.21.36-.32.56-.32.12,0,.22.04.3.13s.11.2.11.35v.76s0,.04.01.05c0,.01.03.02.07.03l.15.04v.06c-.14,0-.26-.01-.34-.01s-.19,0-.34.01v-.06l.14-.04s.05-.02.06-.03c.01-.01.02-.04.02-.08v-.72c0-.1-.03-.18-.09-.24-.06-.06-.14-.09-.24-.09-.08,0-.15.02-.22.07-.07.04-.14.12-.22.21v.76s0,.05.01.06.03.02.05.03l.24.06v.06c-.07,0-.2-.01-.39-.01s-.31,0-.39.01v-.06l.19-.04s.05-.01.06-.02c0,0,.01-.03.01-.05v-1.78Z"/>
    <path class="cls-5" d="m80,606.15h.45v.9c0,.11.02.19.06.24.04.05.11.07.22.07.16,0,.3-.06.44-.18v-.84s-.02-.07-.05-.09c-.04-.02-.12-.03-.27-.04v-.06h.55v1.03c0,.08.01.13.04.15.02.02.09.03.21.03v.05s-.47.13-.47.13v-.27c-.1.09-.2.16-.28.2-.08.05-.17.07-.25.07-.12,0-.21-.04-.29-.13-.08-.09-.11-.2-.11-.34v-.73s-.01-.07-.04-.08c-.02-.02-.09-.03-.19-.05v-.05Z"/>
    <path class="cls-5" d="m81.71,605.34v-.05s.46-.11.46-.11v1.04c.19-.08.36-.12.5-.12.19,0,.34.07.46.2s.18.3.18.5c0,.23-.07.41-.21.55-.14.14-.31.2-.51.2-.1,0-.2-.02-.3-.06-.09-.04-.14-.06-.16-.06-.04,0-.08.05-.13.14h-.05v-1.94c0-.09-.01-.15-.04-.18-.03-.03-.09-.07-.2-.11Zm.46,1.77c0,.1.03.18.1.24.06.06.15.09.26.09.35,0,.53-.19.53-.58,0-.19-.05-.34-.15-.47-.1-.12-.23-.19-.38-.19-.1,0-.18.01-.25.04-.07.03-.1.06-.1.1v.76Z"/>
    <path class="cls-5" d="m84.91,606.75l-.89.35c-.14.06-.23.12-.28.18,0,.01-.01.02-.02.02s-.01,0-.02-.01l-.14-.2.61-.18v-1.56h-.28c-.09,0-.16.01-.23.04l-.09-.12c.1,0,.19.01.25.01h.76l.13-.17.16.18s.03.04.03.05c0,0-.02.01-.05.01h-.52v1.52l.55-.16.02.05Zm.97-.69l-.07.06c-.01.34-.03.59-.05.75-.02.17-.06.3-.1.41-.05.11-.13.21-.24.31-.11.1-.25.19-.41.27-.16.08-.34.15-.55.21l-.02-.04c.32-.14.57-.28.74-.41.17-.13.29-.28.36-.44.06-.17.1-.49.1-.96,0-.1,0-.2,0-.29l.25.09s.03.01.03.02,0,.02-.02.03Zm.86-1.03s.03.04.03.05-.01.02-.04.02h-.88c-.08.17-.16.35-.23.55h.59l.1-.17.22.15s.03.03.03.03,0,.02-.03.03l-.1.07v.71c0,.2,0,.35,0,.44,0,.09,0,.14,0,.15,0,.05-.02.08-.07.1-.04.02-.07.03-.09.03s-.02-.02-.02-.07v-.48s0-.93,0-.93h-1.13v1.44s-.02.07-.06.08c-.05.02-.08.03-.09.03s-.02-.02-.02-.06v-.19c0-.08.01-.19.01-.32v-.78c0-.18,0-.33-.01-.45l.23.18h.35c.03-.19.05-.37.07-.55h-.48c-.09,0-.17.01-.23.04l-.1-.13c.11,0,.2.01.26.01h1.32l.14-.18.2.19Zm-.98,2.13c.29.11.53.23.69.34.17.12.25.22.25.32,0,.03,0,.06-.03.09s-.04.04-.07.04-.06-.03-.1-.09c-.04-.07-.14-.17-.28-.3-.14-.13-.3-.25-.48-.35l.02-.04Z"/>
    <path class="cls-5" d="m89.78,605.15l-.12.06v1.97c0,.17,0,.31,0,.41v.25s-.01.07-.06.09-.08.03-.09.03-.02-.02-.02-.05v-.33h-1.62v.26s-.02.07-.07.08-.07.03-.08.03c-.02,0-.03-.01-.03-.03s0-.1,0-.23,0-.25,0-.37v-2.13c0-.13,0-.25-.01-.36l.25.21h1.49l.1-.17.23.17s.04.04.04.05-.01.02-.04.04Zm-.28.69v-.71h-1.62v.71h1.62Zm0,.82v-.74h-1.62v.74h1.62Zm0,.86v-.78h-1.62v.78h1.62Z"/>
    <path class="cls-5" d="m90.76,605.55c0-.06-.01-.11-.04-.13-.03-.02-.1-.05-.22-.08v-.04c.1,0,.23-.05.38-.13h.08v1.24c.17-.21.36-.32.56-.32.12,0,.22.04.3.13s.11.2.11.35v.76s0,.04.01.05c0,.01.03.02.07.03l.15.04v.06c-.14,0-.26-.01-.34-.01s-.19,0-.34.01v-.06l.14-.04s.05-.02.06-.03c.01-.01.02-.04.02-.08v-.72c0-.1-.03-.18-.09-.24-.06-.06-.14-.09-.24-.09-.08,0-.15.02-.22.07-.07.04-.14.12-.22.21v.76s0,.05.01.06.03.02.05.03l.24.06v.06c-.07,0-.2-.01-.39-.01s-.31,0-.39.01v-.06l.19-.04s.05-.01.06-.02c0,0,.01-.03.01-.05v-1.78Z"/>
    <path class="cls-5" d="m93,607.5c-.07,0-.2-.01-.38-.01s-.31,0-.39.01v-.06l.2-.04c.07-.01.11-.06.11-.13v-.82c0-.06-.01-.1-.04-.12s-.08-.05-.17-.07v-.05c.17-.04.29-.13.36-.25h.06v1.32s0,.06.02.08c.01.02.03.03.06.04l.18.04v.06Zm-.38-2.25s.08.02.11.05.05.07.05.1-.02.07-.05.1c-.03.03-.07.04-.11.04-.04,0-.07-.01-.1-.04-.03-.03-.04-.06-.04-.1s.02-.07.05-.1.07-.05.1-.05Z"/>
    <path class="cls-5" d="m93.56,605.8h.04v.37s.48-.01.48-.01v.13h-.48v.85c0,.1.01.18.04.23.03.05.08.07.14.07.08,0,.17-.03.29-.1l.03.05c-.05.06-.11.1-.17.12-.06.02-.15.04-.26.04-.12,0-.2-.03-.24-.09-.04-.06-.06-.18-.06-.35v-.79h-.19s-.05,0-.05-.02c0-.02.02-.03.05-.05.1-.04.17-.09.22-.15.05-.05.1-.15.15-.29Z"/>
    <path class="cls-5" d="m94.92,607.54c-.2,0-.38-.07-.52-.2-.14-.13-.21-.31-.21-.53s.07-.38.21-.52c.14-.14.33-.21.56-.21.21,0,.39.07.53.21s.21.32.21.53c0,.19-.07.36-.22.5s-.33.21-.56.21Zm-.48-.7c0,.19.05.35.14.46.09.11.21.17.35.17s.27-.06.37-.18c.1-.12.15-.28.15-.47s-.05-.36-.14-.49c-.09-.12-.21-.18-.36-.18-.16,0-.29.06-.37.17-.09.12-.13.29-.13.51Z"/>
    <path class="cls-5" d="m97.51,607.5c-.09,0-.22-.01-.38-.01s-.29,0-.38.01v-.06h.16c.05-.02.08-.03.08-.05,0-.01,0-.03-.03-.06-.02-.02-.05-.07-.1-.12s-.1-.13-.16-.21-.1-.13-.13-.16c-.02-.03-.05-.04-.07-.05-.02-.01-.05-.02-.08-.02h-.06v.5c0,.06,0,.09.02.11.01.01.04.03.07.03l.13.02v.06c-.07,0-.18-.01-.33-.01s-.26,0-.33.01v-.06l.13-.02s.07-.02.08-.03c.01-.02.02-.05.02-.11v-1.74c0-.05-.01-.09-.04-.11s-.08-.03-.18-.05v-.05c.12-.02.24-.08.37-.16h.06v1.54s.09-.01.14-.04.11-.07.19-.14c.08-.06.13-.11.16-.14.03-.03.05-.06.05-.08,0-.05-.07-.08-.22-.1v-.06h.71v.06c-.16.02-.31.08-.43.19l-.3.26.47.56c.06.08.11.13.14.15.03.02.06.04.09.04l.15.03v.06Z"/>
    <path class="cls-5" d="m98.34,607.54c-.2,0-.38-.07-.52-.2-.14-.13-.21-.31-.21-.53s.07-.38.21-.52c.14-.14.33-.21.56-.21.21,0,.39.07.53.21s.21.32.21.53c0,.19-.07.36-.22.5s-.33.21-.56.21Zm-.48-.7c0,.19.05.35.14.46.09.11.21.17.35.17s.27-.06.37-.18c.1-.12.15-.28.15-.47s-.05-.36-.14-.49c-.09-.12-.21-.18-.36-.18-.16,0-.29.06-.37.17-.09.12-.13.29-.13.51Z"/>
    <path class="cls-5" d="m99.8,605.8h.04v.37s.48-.01.48-.01v.13h-.48v.85c0,.1.01.18.04.23.03.05.08.07.14.07.08,0,.17-.03.29-.1l.03.05c-.05.06-.11.1-.17.12-.06.02-.15.04-.26.04-.12,0-.2-.03-.24-.09-.04-.06-.06-.18-.06-.35v-.79h-.19s-.05,0-.05-.02c0-.02.02-.03.05-.05.1-.04.17-.09.22-.15.05-.05.1-.15.15-.29Z"/>
    <path class="cls-5" d="m101.15,607.54c-.2,0-.38-.07-.52-.2-.14-.13-.21-.31-.21-.53s.07-.38.21-.52c.14-.14.33-.21.56-.21.21,0,.39.07.53.21s.21.32.21.53c0,.19-.07.36-.22.5s-.33.21-.56.21Zm-.48-.7c0,.19.05.35.14.46.09.11.21.17.35.17s.27-.06.37-.18c.1-.12.15-.28.15-.47s-.05-.36-.14-.49c-.09-.12-.21-.18-.36-.18-.16,0-.29.06-.37.17-.09.12-.13.29-.13.51Z"/>
    <path class="cls-5" d="m102.2,606.73h.83v.15h-.83v-.15Z"/>
    <path class="cls-5" d="m104.03,607.54c-.2,0-.38-.07-.52-.2-.14-.13-.21-.31-.21-.53s.07-.38.21-.52c.14-.14.33-.21.56-.21.21,0,.39.07.53.21s.21.32.21.53c0,.19-.07.36-.22.5s-.33.21-.56.21Zm-.48-.7c0,.19.05.35.14.46.09.11.21.17.35.17s.27-.06.37-.18c.1-.12.15-.28.15-.47s-.05-.36-.14-.49c-.09-.12-.21-.18-.36-.18-.16,0-.29.06-.37.17-.09.12-.13.29-.13.51Z"/>
    <path class="cls-5" d="m105.93,606.48c-.02-.08-.07-.15-.14-.21-.07-.06-.14-.09-.19-.09-.17,0-.26.08-.26.24,0,.06.03.12.08.16.06.04.14.08.26.13.26.1.4.24.4.43,0,.12-.05.22-.14.3-.09.08-.21.12-.35.12-.17,0-.31-.03-.41-.09l-.04-.4h.06c.03.12.09.22.17.3.08.08.17.11.26.11.07,0,.14-.02.19-.07s.08-.11.08-.18c0-.13-.11-.24-.33-.32-.15-.06-.26-.12-.33-.18-.07-.06-.1-.14-.1-.24,0-.12.04-.21.13-.28.09-.07.21-.1.36-.1.13,0,.25.03.34.08l.02.3h-.07Z"/>
    <path class="cls-5" d="m107.59,607.18v.11c-.08.09-.17.16-.26.2-.09.04-.19.06-.31.06-.18,0-.33-.07-.46-.21-.12-.14-.18-.32-.18-.53,0-.23.06-.41.19-.53s.32-.18.56-.18c.13,0,.23.02.31.06.08.04.12.09.12.15,0,.03-.01.06-.03.09-.02.03-.05.04-.09.04-.06,0-.13-.03-.2-.1-.08-.08-.16-.12-.24-.12-.1,0-.19.05-.26.16-.08.11-.11.25-.11.41,0,.19.05.33.15.44.1.11.21.16.35.16.15,0,.31-.07.46-.21Z"/>
    <path class="cls-5" d="m109.08,605.05h.15l-1.2,2.91h-.15l1.2-2.91Z"/>
    <path class="cls-5" d="m110.41,606.48c-.02-.08-.07-.15-.14-.21-.07-.06-.14-.09-.19-.09-.17,0-.26.08-.26.24,0,.06.03.12.08.16.06.04.14.08.26.13.26.1.4.24.4.43,0,.12-.05.22-.14.3-.09.08-.21.12-.35.12-.17,0-.31-.03-.41-.09l-.04-.4h.06c.03.12.09.22.17.3.08.08.17.11.26.11.07,0,.14-.02.19-.07s.08-.11.08-.18c0-.13-.11-.24-.33-.32-.15-.06-.26-.12-.33-.18-.07-.06-.1-.14-.1-.24,0-.12.04-.21.13-.28.09-.07.21-.1.36-.1.13,0,.25.03.34.08l.02.3h-.07Z"/>
    <path class="cls-5" d="m112.07,606.61h-.98s-.01.09-.01.14c0,.18.05.33.15.44s.23.17.4.17c.08,0,.16-.02.22-.05.07-.03.14-.09.22-.16v.08c-.15.2-.36.3-.62.3-.17,0-.31-.07-.43-.21s-.17-.3-.17-.5c0-.21.06-.39.19-.53.13-.14.29-.21.48-.21.15,0,.27.05.37.14s.15.22.16.38Zm-.96-.07h.64c.06,0,.09-.02.09-.07s-.02-.11-.07-.18c-.05-.07-.13-.11-.25-.11-.1,0-.19.03-.27.1-.07.07-.12.15-.15.26Z"/>
    <path class="cls-5" d="m113.92,607.5c-.12,0-.24-.01-.36-.01s-.24,0-.36.01v-.06l.19-.03c.05,0,.08-.05.08-.14v-.69c0-.1-.03-.18-.09-.25-.06-.06-.14-.09-.24-.09-.15,0-.29.07-.44.21v.85s.03.06.08.08l.21.05v.06c-.09,0-.21-.01-.38-.01s-.29,0-.38.01v-.06l.19-.03s.07-.04.07-.11v-.69c0-.07-.01-.12-.04-.15-.03-.03-.08-.04-.16-.06v-.06c.15-.04.27-.14.35-.32h.06v.32c.09-.08.19-.14.29-.18.11-.05.2-.07.28-.07.27,0,.4.16.4.48v.7s0,.08.02.1.04.04.07.05l.15.03v.06Z"/>
    <path class="cls-5" d="m114.49,605.8h.04v.37s.48-.01.48-.01v.13h-.48v.85c0,.1.01.18.04.23.03.05.08.07.14.07.08,0,.17-.03.29-.1l.03.05c-.05.06-.11.1-.17.12-.06.02-.15.04-.26.04-.12,0-.2-.03-.24-.09-.04-.06-.06-.18-.06-.35v-.79h-.19s-.05,0-.05-.02c0-.02.02-.03.05-.05.1-.04.17-.09.22-.15.05-.05.1-.15.15-.29Z"/>
    <path class="cls-5" d="m116.33,606.61h-.98s-.01.09-.01.14c0,.18.05.33.15.44s.23.17.4.17c.08,0,.16-.02.22-.05.07-.03.14-.09.22-.16v.08c-.15.2-.36.3-.62.3-.17,0-.31-.07-.43-.21s-.17-.3-.17-.5c0-.21.06-.39.19-.53.13-.14.29-.21.48-.21.15,0,.27.05.37.14s.15.22.16.38Zm-.96-.07h.64c.06,0,.09-.02.09-.07s-.02-.11-.07-.18c-.05-.07-.13-.11-.25-.11-.1,0-.19.03-.27.1-.07.07-.12.15-.15.26Z"/>
    <path class="cls-5" d="m118.19,607.5c-.12,0-.24-.01-.36-.01s-.24,0-.36.01v-.06l.19-.03c.05,0,.08-.05.08-.14v-.69c0-.1-.03-.18-.09-.25-.06-.06-.14-.09-.24-.09-.15,0-.29.07-.44.21v.85s.03.06.08.08l.21.05v.06c-.09,0-.21-.01-.38-.01s-.29,0-.38.01v-.06l.19-.03s.07-.04.07-.11v-.69c0-.07-.01-.12-.04-.15-.03-.03-.08-.04-.16-.06v-.06c.15-.04.27-.14.35-.32h.06v.32c.09-.08.19-.14.29-.18.11-.05.2-.07.28-.07.27,0,.4.16.4.48v.7s0,.08.02.1.04.04.07.05l.15.03v.06Z"/>
    <path class="cls-5" d="m119.59,607.18v.11c-.08.09-.17.16-.26.2-.09.04-.19.06-.31.06-.18,0-.33-.07-.46-.21-.12-.14-.18-.32-.18-.53,0-.23.06-.41.19-.53s.32-.18.56-.18c.13,0,.23.02.31.06.08.04.12.09.12.15,0,.03-.01.06-.03.09-.02.03-.05.04-.09.04-.06,0-.13-.03-.2-.1-.08-.08-.16-.12-.24-.12-.1,0-.19.05-.26.16-.08.11-.11.25-.11.41,0,.19.05.33.15.44.1.11.21.16.35.16.15,0,.31-.07.46-.21Z"/>
    <path class="cls-5" d="m121.04,606.61h-.98s-.01.09-.01.14c0,.18.05.33.15.44s.23.17.4.17c.08,0,.16-.02.22-.05.07-.03.14-.09.22-.16v.08c-.15.2-.36.3-.62.3-.17,0-.31-.07-.43-.21s-.17-.3-.17-.5c0-.21.06-.39.19-.53.13-.14.29-.21.48-.21.15,0,.27.05.37.14s.15.22.16.38Zm-.96-.07h.64c.06,0,.09-.02.09-.07s-.02-.11-.07-.18c-.05-.07-.13-.11-.25-.11-.1,0-.19.03-.27.1-.07.07-.12.15-.15.26Z"/>
    <path class="cls-5" d="m122.12,606.48c-.02-.08-.07-.15-.14-.21-.07-.06-.14-.09-.19-.09-.17,0-.26.08-.26.24,0,.06.03.12.08.16.06.04.14.08.26.13.26.1.4.24.4.43,0,.12-.05.22-.14.3-.09.08-.21.12-.35.12-.17,0-.31-.03-.41-.09l-.04-.4h.06c.03.12.09.22.17.3.08.08.17.11.26.11.07,0,.14-.02.19-.07s.08-.11.08-.18c0-.13-.11-.24-.33-.32-.15-.06-.26-.12-.33-.18-.07-.06-.1-.14-.1-.24,0-.12.04-.21.13-.28.09-.07.21-.1.36-.1.13,0,.25.03.34.08l.02.3h-.07Z"/>
    <path class="cls-5" d="m122.55,606.73h.83v.15h-.83v-.15Z"/>
    <path class="cls-5" d="m123.57,605.34v-.05s.46-.11.46-.11v1.04c.19-.08.36-.12.5-.12.19,0,.34.07.46.2s.18.3.18.5c0,.23-.07.41-.21.55-.14.14-.31.2-.51.2-.1,0-.2-.02-.3-.06-.09-.04-.14-.06-.16-.06-.04,0-.08.05-.13.14h-.05v-1.94c0-.09-.01-.15-.04-.18-.03-.03-.09-.07-.2-.11Zm.46,1.77c0,.1.03.18.1.24.06.06.15.09.26.09.35,0,.53-.19.53-.58,0-.19-.05-.34-.15-.47-.1-.12-.23-.19-.38-.19-.1,0-.18.01-.25.04-.07.03-.1.06-.1.1v.76Z"/>
    <path class="cls-5" d="m125.36,606.15h.45v.9c0,.11.02.19.06.24.04.05.11.07.22.07.16,0,.3-.06.44-.18v-.84s-.02-.07-.05-.09c-.04-.02-.12-.03-.27-.04v-.06h.55v1.03c0,.08.01.13.04.15.02.02.09.03.21.03v.05s-.47.13-.47.13v-.27c-.1.09-.2.16-.28.2-.08.05-.17.07-.25.07-.12,0-.21-.04-.29-.13-.08-.09-.11-.2-.11-.34v-.73s-.01-.07-.04-.08c-.02-.02-.09-.03-.19-.05v-.05Z"/>
    <path class="cls-5" d="m128.77,607.5c-.12,0-.24-.01-.36-.01s-.24,0-.36.01v-.06l.19-.03c.05,0,.08-.05.08-.14v-.69c0-.1-.03-.18-.09-.25-.06-.06-.14-.09-.24-.09-.15,0-.29.07-.44.21v.85s.03.06.08.08l.21.05v.06c-.09,0-.21-.01-.38-.01s-.29,0-.38.01v-.06l.19-.03s.07-.04.07-.11v-.69c0-.07-.01-.12-.04-.15-.03-.03-.08-.04-.16-.06v-.06c.15-.04.27-.14.35-.32h.06v.32c.09-.08.19-.14.29-.18.11-.05.2-.07.28-.07.27,0,.4.16.4.48v.7s0,.08.02.1.04.04.07.05l.15.03v.06Z"/>
    <path class="cls-5" d="m130.05,605.58c0-.09-.01-.15-.04-.18-.03-.03-.11-.06-.23-.09v-.06c.15-.01.28-.04.41-.08h.09v2.07c0,.08.01.13.04.15s.09.03.2.03v.06c-.17.04-.33.07-.46.08v-.16c-.12.05-.22.09-.3.11-.08.02-.17.03-.27.03-.15,0-.28-.07-.4-.2-.11-.13-.17-.29-.17-.47,0-.22.07-.4.2-.56.14-.15.3-.23.48-.23s.33.03.45.09v-.61Zm0,1.73v-.79c0-.11-.04-.19-.11-.25-.07-.06-.18-.09-.3-.09-.14,0-.25.06-.34.18-.09.12-.13.28-.13.48,0,.17.05.31.15.42.1.11.22.16.37.16.07,0,.14,0,.21-.03.07-.02.12-.04.16-.07Z"/>
    <path class="cls-5" d="m131.34,607.5c-.11,0-.24-.01-.39-.01s-.27,0-.39.01v-.06l.22-.04s.05-.02.06-.03.02-.04.02-.07v-1.78s-.01-.08-.04-.11-.09-.05-.19-.08v-.04c.09-.02.21-.06.36-.12h.08v2.12s0,.07.01.09.03.02.07.03l.19.03v.06Z"/>
    <path class="cls-5" d="m132.71,606.61h-.98s-.01.09-.01.14c0,.18.05.33.15.44s.23.17.4.17c.08,0,.16-.02.22-.05.07-.03.14-.09.22-.16v.08c-.15.2-.36.3-.62.3-.17,0-.31-.07-.43-.21s-.17-.3-.17-.5c0-.21.06-.39.19-.53.13-.14.29-.21.48-.21.15,0,.27.05.37.14s.15.22.16.38Zm-.96-.07h.64c.06,0,.09-.02.09-.07s-.02-.11-.07-.18c-.05-.07-.13-.11-.25-.11-.1,0-.19.03-.27.1-.07.07-.12.15-.15.26Z"/>
    <path class="cls-5" d="m135.42,605.98l-.2.68c-.07.26-.12.43-.13.49-.01.06-.02.11-.02.15,0,.1.04.14.12.14.1,0,.21-.05.32-.14.12-.09.21-.23.29-.41.08-.18.12-.36.12-.54,0-.31-.1-.57-.31-.78-.21-.2-.47-.31-.8-.31-.26,0-.51.07-.74.22-.23.15-.41.35-.54.61-.13.26-.19.53-.19.8,0,.25.05.49.16.7.11.21.27.38.48.49.21.12.44.18.7.18.3,0,.57-.08.81-.24s.43-.4.56-.7h.1c-.11.32-.3.58-.57.77-.27.19-.57.28-.91.28-.28,0-.53-.07-.77-.2-.23-.14-.41-.32-.54-.56s-.19-.49-.19-.76c0-.29.07-.56.21-.83.14-.26.34-.47.59-.62.26-.15.53-.23.82-.23.25,0,.46.05.65.15.19.1.33.25.43.44.1.19.15.39.15.6s-.05.41-.14.61c-.09.2-.21.35-.35.45-.14.1-.29.15-.46.15-.08,0-.15-.02-.19-.06-.05-.04-.07-.1-.07-.17,0-.06,0-.14.03-.25-.26.33-.49.49-.67.49-.08,0-.16-.04-.22-.11s-.09-.17-.09-.29c0-.15.05-.33.15-.52.1-.19.22-.35.38-.48.15-.13.29-.19.42-.19.16,0,.26.08.29.24l.06-.19.27-.04Zm-.39.32c0-.07-.02-.13-.06-.17-.04-.05-.09-.07-.15-.07-.09,0-.18.05-.29.16s-.19.26-.28.45c-.09.19-.13.34-.13.46,0,.07.02.13.06.18.04.04.09.07.14.07.1,0,.21-.06.34-.19s.22-.28.27-.44c.06-.17.09-.31.09-.43Z"/>
    <path class="cls-5" d="m137.26,607.5c-.12,0-.26-.01-.41-.01s-.29,0-.41.01v-.06l.18-.03c.08-.02.12-.06.12-.14v-1.73l-.42.27-.05-.07c.16-.11.35-.27.58-.48h.12v2.01c0,.08.04.13.12.14l.16.03v.06Z"/>
    <path class="cls-5" d="m138.05,607.54c-.05,0-.09-.02-.13-.05-.03-.04-.05-.08-.05-.13s.02-.09.05-.13c.04-.03.08-.05.13-.05s.09.02.13.05c.03.04.05.08.05.13s-.02.09-.05.13c-.04.03-.08.05-.13.05Z"/>
    <path class="cls-5" d="m139.26,605.26c.19,0,.36.11.5.33.14.22.21.49.21.81s-.07.59-.21.81c-.14.22-.31.33-.5.33s-.35-.11-.5-.32-.22-.49-.22-.81.07-.6.21-.81c.14-.22.31-.33.5-.33Zm0,2.2c.17,0,.29-.09.36-.26.07-.17.1-.44.1-.8s-.03-.63-.1-.8c-.07-.17-.19-.26-.36-.26s-.29.09-.36.26-.1.44-.1.8c0,.7.15,1.06.46,1.06Z"/>
    <path class="cls-5" d="m140.45,607.54c-.05,0-.09-.02-.13-.05-.03-.04-.05-.08-.05-.13s.02-.09.05-.13c.04-.03.08-.05.13-.05s.09.02.13.05c.03.04.05.08.05.13s-.02.09-.05.13c-.04.03-.08.05-.13.05Z"/>
    <path class="cls-5" d="m141.17,605.78l-.06-.03c.07-.16.15-.28.25-.36.1-.08.22-.12.36-.12.13,0,.24.04.33.11.09.07.13.16.13.25s-.03.18-.09.26c-.06.08-.16.17-.29.27.17-.01.31.04.41.15.1.11.15.25.15.43,0,.23-.08.42-.24.57s-.37.23-.62.23c-.16,0-.28-.02-.37-.06-.08-.04-.13-.08-.13-.13,0-.02.01-.04.03-.06s.05-.03.07-.03c.04,0,.08.02.14.06.13.1.24.15.33.15.14,0,.27-.06.38-.18.11-.12.16-.27.16-.45,0-.15-.04-.27-.11-.37-.07-.1-.17-.15-.28-.15-.09,0-.18.04-.27.12l-.04-.07s.1-.08.15-.13c.26-.19.39-.35.39-.48,0-.1-.03-.17-.1-.23-.06-.06-.14-.09-.24-.09s-.18.03-.26.09c-.08.06-.15.14-.19.25Z"/>
    <path class="cls-5" d="m143.39,606.58c-.07.04-.13.05-.21.05-.15,0-.28-.06-.39-.19-.11-.13-.17-.29-.17-.48s.06-.36.19-.5c.13-.13.28-.2.46-.2.2,0,.37.08.49.24.12.16.19.37.19.63,0,.36-.11.68-.33.95-.22.27-.5.43-.85.48v-.08c.28-.06.51-.21.68-.46.17-.25.25-.55.25-.92,0-.24-.04-.43-.12-.56s-.19-.2-.33-.2c-.11,0-.19.06-.26.18-.07.12-.1.28-.1.47,0,.16.03.29.1.39.07.1.15.15.26.15.04,0,.08,0,.12-.02l.03.07Z"/>
    <path class="cls-5" d="m144.45,605.78l-.06-.03c.07-.16.15-.28.25-.36.1-.08.22-.12.36-.12.13,0,.24.04.33.11.09.07.13.16.13.25s-.03.18-.09.26c-.06.08-.16.17-.29.27.17-.01.31.04.41.15.1.11.15.25.15.43,0,.23-.08.42-.24.57s-.37.23-.62.23c-.16,0-.28-.02-.37-.06-.08-.04-.13-.08-.13-.13,0-.02.01-.04.03-.06s.05-.03.07-.03c.04,0,.08.02.14.06.13.1.24.15.33.15.14,0,.27-.06.38-.18.11-.12.16-.27.16-.45,0-.15-.04-.27-.11-.37-.07-.1-.17-.15-.28-.15-.09,0-.18.04-.27.12l-.04-.07s.1-.08.15-.13c.26-.19.39-.35.39-.48,0-.1-.03-.17-.1-.23-.06-.06-.14-.09-.24-.09s-.18.03-.26.09c-.08.06-.15.14-.19.25Z"/>
    <path class="cls-5" d="m146.64,606.85c.12,0,.22.04.29.12s.12.18.12.29-.04.21-.12.29-.17.12-.29.12-.22-.04-.29-.12-.12-.17-.12-.29.04-.21.12-.29.18-.12.29-.12Zm0,.71c.09,0,.16-.03.22-.09.06-.06.09-.13.09-.22s-.03-.16-.09-.22c-.06-.06-.13-.09-.22-.09s-.16.03-.22.09-.09.13-.09.22.03.16.09.22c.06.06.13.09.22.09Z"/>
    <path class="cls-5" d="m10.46,609.97l-.06-.03c.07-.16.15-.28.25-.36.1-.08.22-.12.36-.12.13,0,.24.04.33.11.09.07.13.16.13.25s-.03.18-.09.26c-.06.08-.16.17-.29.27.17-.01.31.04.41.15.1.11.15.25.15.43,0,.23-.08.42-.24.57s-.37.23-.62.23c-.16,0-.28-.02-.37-.06-.08-.04-.13-.08-.13-.13,0-.02.01-.04.03-.06s.05-.03.07-.03c.04,0,.08.02.14.06.13.1.24.15.33.15.14,0,.27-.06.38-.18.11-.12.16-.27.16-.45,0-.15-.04-.27-.11-.37-.07-.1-.17-.15-.28-.15-.09,0-.18.04-.27.12l-.04-.07s.1-.08.15-.13c.26-.19.39-.35.39-.48,0-.1-.03-.17-.1-.23-.06-.06-.14-.09-.24-.09s-.18.03-.26.09c-.08.06-.15.14-.19.25Z"/>
    <path class="cls-5" d="m12.16,611.74c-.05,0-.09-.02-.13-.05-.03-.04-.05-.08-.05-.13s.02-.09.05-.13c.04-.03.08-.05.13-.05s.09.02.13.05c.03.04.05.08.05.13s-.02.09-.05.13c-.04.03-.08.05-.13.05Z"/>
    <path class="cls-5" d="m30.75,608.89s.03,0,.04.02c.02.02.02.03.02.04s-.02.03-.05.05c-.18.13-.27.24-.27.34,0,.05.03.08.08.1.07.03.11.08.11.15,0,.04-.01.08-.04.12-.03.03-.07.05-.13.05s-.11-.02-.16-.08c-.05-.05-.07-.11-.07-.19,0-.13.07-.26.21-.4.14-.14.22-.21.26-.21Zm.54,0s.03,0,.04.02c.02.02.02.03.02.04s-.02.03-.05.05c-.18.13-.27.24-.27.34,0,.05.03.08.08.1.07.03.11.08.11.15,0,.04-.01.08-.04.12-.03.03-.07.05-.13.05s-.11-.02-.16-.08c-.05-.05-.07-.11-.07-.19,0-.13.07-.26.2-.4.14-.14.22-.21.26-.21Z"/>
    <path class="cls-5" d="m34.97,610.41s.03.04.03.05c0,.01-.02.02-.05.02h-2.85c-.1,0-.17.01-.23.04l-.1-.13c.11,0,.2.01.26.01h2.55l.16-.23.24.25Z"/>
    <path class="cls-5" d="m38.43,609.55s.04.04.04.05c0,.01-.02.02-.05.02h-2.8c-.09,0-.17.01-.23.04l-.1-.13c.11,0,.2.01.26.01h2.52l.15-.2.23.2Zm-.43,1.04s.04.04.04.06c0,.01-.02.02-.05.02h-1.86c-.09,0-.17.01-.23.04l-.1-.13c.11,0,.2.01.26.01h1.61l.13-.18.21.18Zm-.02-.52s.04.04.04.06-.02.02-.05.02h-1.83c-.09,0-.17.01-.23.04l-.1-.13c.11,0,.2.01.26.01h1.59l.13-.17.2.17Zm-.09,1.11l-.09.07v.46c0,.11,0,.2,0,.28,0,.08,0,.11,0,.12,0,.03-.02.06-.07.09-.05.03-.08.04-.09.04s-.02-.02-.02-.05v-.27h-1.49v.21s-.02.06-.07.08c-.04.02-.07.03-.09.03s-.02-.02-.02-.05v-.19c0-.08.01-.17.01-.27v-.43c0-.13,0-.25-.01-.36l.22.17h1.37l.11-.15.21.16s.03.03.03.04c0,0,0,.02-.03.03Zm-.26.66v-.66h-1.49v.66h1.49Zm-.98-2.85c.13.06.24.12.32.17s.12.12.12.19c0,.04-.01.08-.04.12s-.05.05-.08.05-.04,0-.05-.02c-.01-.02-.02-.06-.04-.12-.03-.14-.12-.26-.26-.36l.03-.04Z"/>
    <path class="cls-5" d="m39.27,608.89c.06,0,.11.03.16.08.04.05.07.12.07.19s-.03.16-.09.26c-.06.1-.14.19-.24.27-.1.08-.16.12-.19.12,0,0-.02,0-.03-.02-.01-.01-.02-.02-.02-.04,0-.01.01-.03.04-.06.2-.15.29-.27.29-.38,0-.05-.02-.08-.07-.1-.07-.03-.1-.08-.1-.14,0-.05.02-.09.05-.13.03-.04.08-.06.13-.06Zm.53,0c.06,0,.12.03.16.08s.06.12.06.19-.03.15-.08.24c-.05.09-.13.18-.23.27-.1.09-.17.13-.2.13,0,0-.02,0-.03-.01-.01,0-.02-.02-.02-.03,0-.03.01-.05.04-.07.2-.15.29-.28.29-.38,0-.05-.02-.08-.07-.1-.07-.03-.1-.08-.1-.15,0-.05.02-.09.05-.13.03-.04.07-.05.12-.05Z"/>
    <path class="cls-5" d="m43.77,609.76l-.12.07v1.42c0,.17,0,.31,0,.41v.25s-.01.08-.06.09c-.05.02-.08.03-.09.03s-.02-.01-.02-.04v-.26h-.82v.33s0,.04-.01.05-.03.02-.06.04c-.03.01-.06.02-.07.02-.02,0-.04-.02-.04-.05s0-.12,0-.25c0-.14,0-.3,0-.49v-1.52c0-.13,0-.25-.01-.34l.21.17h.14c.09-.23.15-.46.18-.7l.22.12s.04.03.04.04c0,0-.01.02-.03.02-.02,0-.05.02-.07.04s-.04.05-.05.07l-.19.42h.5l.12-.16.22.17s.03.02.03.03,0,.01-.03.03Zm-.28.88v-.87h-.82v.87h.82Zm0,1.03v-.95h-.82v.95h.82Zm1.84-1.87l-.11.07c-.02.69-.04,1.18-.05,1.49-.02.3-.04.51-.07.61s-.1.19-.21.28c-.04.03-.07.04-.08.04-.03,0-.05-.01-.06-.04s-.02-.05-.05-.08c-.02-.02-.07-.04-.13-.06-.07-.02-.16-.04-.29-.06v-.06c.16.02.29.02.39.02s.16-.01.21-.04c.05-.03.08-.09.09-.18.02-.09.04-.3.05-.64.02-.34.03-.79.04-1.35h-.84c-.06.16-.21.39-.45.69l-.04-.03c.26-.4.46-.88.62-1.45l.21.11s.05.03.05.04c0,.01-.02.02-.06.03-.04,0-.07.05-.11.13-.05.12-.11.25-.19.39h.75l.1-.17.22.18s.03.03.03.04c0,0,0,.02-.03.03Zm-1.31.65c.09.05.19.11.29.19.1.08.18.15.24.22.06.07.09.14.09.22,0,.04,0,.07-.03.1-.02.02-.04.04-.07.04-.04,0-.07-.03-.09-.08-.03-.08-.08-.19-.16-.31s-.18-.23-.29-.34l.02-.03Z"/>
    <path class="cls-5" d="m48.67,609.85l-.1.06v2.01c0,.08-.01.14-.04.17-.02.04-.07.07-.13.11-.06.04-.1.06-.11.06s-.02-.01-.03-.03c-.02-.08-.08-.14-.16-.19-.08-.04-.2-.09-.36-.13v-.05c.28.05.45.07.51.07s.11,0,.12-.03.02-.05.02-.09v-1.97h-1c-.01.21-.04.38-.07.54.53.28.79.51.79.69,0,.05-.01.09-.04.13-.03.04-.05.06-.08.06s-.05-.02-.07-.05c-.02-.03-.04-.08-.06-.14-.02-.06-.08-.15-.18-.27s-.22-.24-.38-.34c-.06.18-.17.37-.34.56-.17.19-.36.34-.58.45l-.02-.04c.34-.28.57-.53.68-.75s.17-.5.19-.83h-.94v1.56c0,.23,0,.4,0,.51,0,.12,0,.18,0,.18,0,.04-.03.07-.08.09-.05.02-.08.03-.09.03-.02,0-.03-.02-.03-.05s0-.12,0-.27,0-.31,0-.51v-1.33c0-.16,0-.33-.01-.51l.21.2h.91c0-.07,0-.17,0-.29s0-.29-.01-.53l.3.14s.03.02.03.02-.01.02-.03.03l-.09.06c0,.25-.02.44-.02.56h.91l.13-.19.23.18s.04.04.04.04c0,0-.01.02-.04.04Z"/>
    <path class="cls-5" d="m52.55,611.09c-.07,0-.13.01-.18.04s-.09.07-.13.13c0,0-.02.01-.03.01-.03,0-.15-.06-.36-.17-.21-.11-.4-.25-.56-.4-.17-.15-.29-.32-.38-.49-.02.02-.05.05-.07.07-.31.35-.59.62-.85.8s-.51.33-.75.42l-.02-.05c.36-.21.67-.42.92-.65.25-.23.48-.51.69-.84l.2.13s.04.02.04.03c0,0-.01.02-.04.02-.03,0-.05.02-.07.02.15.24.37.45.67.61s.6.26.91.26v.05Zm-2.18-1.39l.19.15s.03.03.03.04c0,0,0,.01-.03.02-.07.02-.11.03-.14.05-.03.01-.06.03-.08.05-.39.35-.72.61-.98.77l-.03-.04c.34-.25.68-.6,1.04-1.04Zm2.08-.23s.03.03.03.04c0,0-.01.01-.04.02-.07,0-.15.04-.22.09-.07.05-.17.15-.31.29l-.05-.03.23-.37h-2.26c0,.17-.03.28-.09.34s-.12.09-.17.09c-.03,0-.05,0-.07-.02-.02-.01-.02-.03-.02-.06,0-.04.03-.08.08-.11.05-.03.1-.09.13-.16s.06-.17.08-.27h.05v.13h2.25l.12-.16.25.21Zm-.68,1.68s.02.01.02.02,0,.01-.02.02l-.08.05v.46c0,.1,0,.19,0,.27,0,.08,0,.12,0,.14,0,.04-.02.07-.07.09-.05.02-.08.03-.08.03-.02,0-.02-.02-.02-.05v-.16h-1.23v.15s0,.03-.01.04c0,0-.03.02-.06.03s-.06.02-.08.02-.03-.02-.03-.06v-.35s.01-.56.01-.56c0-.11,0-.2-.01-.27l.19.1h1.17l.07-.1.21.14Zm-.25.79v-.75h-1.23v.75h1.23Zm-.86-2.98c.17.06.29.12.34.17.06.05.09.1.09.14s-.01.08-.04.11c-.03.03-.05.05-.08.05s-.04,0-.05-.02c-.01-.01-.03-.05-.05-.11-.02-.06-.05-.11-.08-.15-.03-.04-.08-.09-.16-.15l.02-.04Zm.6.8c.15.06.29.11.41.17s.21.12.28.17c.07.06.12.1.13.13.02.03.03.07.03.1s0,.06-.02.09c-.02.03-.03.04-.05.04s-.04,0-.05-.02c-.01-.01-.03-.03-.06-.07-.09-.13-.19-.24-.3-.33-.11-.09-.23-.17-.39-.26l.02-.04Z"/>
    <path class="cls-5" d="m54.15,610.07s.02.03.02.04c0,0-.01.01-.04.01h-.56v1.16l.56-.13v.06s-.71.24-.71.24c-.25.08-.4.15-.45.2-.01.01-.02.02-.03.02,0,0-.02,0-.03-.02l-.14-.17.64-.15v-1.2h-.31c-.08,0-.15.01-.21.04l-.09-.12c.1,0,.18.01.23.01h.38v-.56c0-.15,0-.31-.01-.48l.26.13s.04.02.04.03-.01.02-.04.04l-.08.06v.78h.27l.13-.19.17.21Zm1.8-.33s.02.02.02.03c0,0-.01.02-.03.03l-.12.07c0,.3-.03.7-.06,1.19-.03.49-.07.79-.12.89s-.12.18-.22.24c-.1.06-.16.09-.17.09s-.02-.01-.03-.03c-.02-.07-.07-.13-.15-.18-.07-.05-.2-.09-.39-.14v-.06c.28.05.47.08.56.08s.16-.02.19-.05c.03-.03.06-.1.09-.21s.05-.32.07-.63.04-.74.05-1.28h-1.13c-.19.4-.36.7-.51.9l-.06-.03c.3-.53.52-1.08.69-1.65l.23.14s.03.03.03.03c0,0-.01.02-.04.03-.07.03-.11.05-.13.09l-.19.42h1.04l.11-.17.24.19Zm-.48,1.24l-.81.33c-.12.05-.21.08-.25.11s-.08.04-.09.07c-.02.02-.03.03-.04.03,0,0-.02,0-.04-.02l-.17-.14,1.39-.42v.05Zm-.93-.79c.18.1.3.18.37.25.07.07.1.13.1.18s-.01.1-.04.13c-.02.04-.05.05-.08.05-.04,0-.07-.02-.08-.07-.02-.19-.12-.36-.31-.51l.02-.05Z"/>
    <path class="cls-5" d="m59.21,609.94s.03.03.03.04-.01.02-.04.03l-.11.05v1.32c0,.18,0,.33,0,.47v.3s-.02.07-.06.09-.08.04-.09.04-.02-.02-.02-.05v-.3h-2.02v.25s-.02.05-.07.08c-.05.02-.08.03-.09.03s-.02-.02-.02-.06v-.25c.02-.1.02-.24.02-.44v-1.38c0-.15,0-.27-.01-.38l.23.18h.86v-.44c0-.16,0-.33-.01-.51l.26.14s.05.03.05.04c0,0-.01.02-.04.04l-.09.07v.67h.85l.12-.18.23.17Zm-1.38.9v-.82h-.92v.82h.92Zm0,.99v-.91h-.92v.91h.92Zm1.1-.99v-.82h-.93v.82h.93Zm0,.99v-.91h-.93v.91h.93Z"/>
    <path class="cls-5" d="m61.16,611.29c-.28.27-.47.45-.55.54-.08.09-.14.18-.17.26,0,.02-.01.03-.02.03s-.02,0-.03-.01l-.2-.18c.07-.05.11-.1.13-.13.02-.03.02-.1.02-.19v-1.36h-.27c-.1.01-.17.03-.22.04l-.1-.11s.07,0,.11,0c.03,0,.1,0,.19,0h.29s.12-.17.12-.17l.22.18s.04.03.04.04-.01.02-.04.03l-.17.08v1.38l.6-.46.05.04Zm-.95-2.16c.13.07.23.13.31.18s.13.1.16.15.04.09.04.14-.01.1-.04.13-.05.05-.08.05-.04,0-.05-.02c-.01-.02-.03-.06-.05-.15-.02-.08-.06-.16-.12-.23-.05-.07-.12-.14-.2-.22l.03-.04Zm2.77,1.07s.03.03.03.04c0,0-.01.01-.04.01h-1v1.27c0,.2,0,.35,0,.45,0,.1,0,.16,0,.17,0,.04-.03.07-.08.09s-.08.03-.1.03-.02-.02-.02-.07v-.25c.01-.09.01-.23.01-.43v-1.26h-.61c-.12,0-.2,0-.24.03l-.12-.12c.09,0,.18.01.28.01h.69v-.67c0-.28,0-.45,0-.53l.29.15s.04.02.04.03c0,0,0,.02-.03.03l-.11.07v.92h.64l.15-.21.22.24Z"/>
    <path class="cls-5" d="m66.49,611.47s.03.03.03.04-.02.01-.05.01h-.93v.39c0,.1,0,.17,0,.21v.11s-.02.05-.07.07c-.05.02-.08.03-.09.03s-.02-.01-.02-.04v-.16c0-.06.01-.14.01-.25v-.36h-.96c-.05.24-.15.42-.32.54-.16.12-.42.2-.78.24v-.05c.31-.07.53-.16.67-.26.14-.1.22-.26.26-.46h-.64c-.09,0-.17.01-.23.04l-.1-.13c.11,0,.2.01.26.01h.73c.01-.11.02-.22.02-.33l.22.07s.02.01.02.02,0,.02-.02.03l-.07.06c0,.05,0,.11-.02.16h.94c0-.08,0-.19,0-.32l.23.1s.02.01.02.02,0,.01-.02.02l-.06.04v.14h.6l.14-.18.22.21Zm-1.53-2.01s.02.02.02.03c0,0-.01,0-.04,0h-.69c.14.09.21.17.21.23,0,.04,0,.08-.03.11s-.04.04-.07.04-.05-.03-.06-.1c-.01-.07-.06-.16-.15-.28h-.23c-.22.3-.42.52-.58.66l-.03-.03c.3-.37.54-.74.72-1.12l.24.12s.02.01.02.02-.01,0-.04.01c-.02,0-.05.01-.09.04-.03.02-.06.05-.08.08-.02.03-.06.08-.1.15h.68l.11-.15.18.19Zm.77.48l.09-.12.19.18s.02.02.02.03c0,0,0,.02-.02.02l-.09.05v.55c0,.16,0,.28,0,.35,0,.07,0,.12,0,.12,0,.03-.02.06-.07.08-.04.02-.07.03-.08.03s-.02-.02-.02-.05v-.08h-1.71s0,.04,0,.06c0,.02-.03.03-.06.05-.04.02-.06.02-.08.02s-.02-.01-.02-.03,0-.04,0-.07c0-.09.01-.21.01-.38v-.59c0-.14,0-.26-.01-.37l.22.16h1.62Zm.04.35v-.28h-1.71v.28h1.71Zm0,.36v-.28h-1.71v.28h1.71Zm0,.36v-.29h-1.71v.29h1.71Zm-1.02-1.12c.23-.26.42-.56.58-.91l.21.11s.04.02.04.02-.01,0-.04.01c-.04,0-.09.04-.14.11-.05.07-.09.13-.14.19h.87l.13-.19.22.22s.02.02.02.03-.01.01-.03.01h-.88c.15.09.23.17.23.25,0,.03,0,.05-.02.07-.01.02-.04.03-.07.03s-.06-.02-.07-.06c-.04-.1-.1-.2-.18-.29h-.28c-.14.16-.27.3-.41.42l-.04-.03Z"/>
    <path class="cls-5" d="m68.18,609.83s.03.03.03.04-.02.02-.05.02h-.62v.42c.13.04.23.09.32.13s.14.09.17.13c.03.04.05.08.05.13s0,.08-.02.11c-.02.03-.03.04-.05.04-.04,0-.08-.03-.1-.1s-.07-.13-.14-.2c-.07-.07-.14-.12-.22-.17v1.05c0,.26,0,.42,0,.5v.21s-.02.07-.07.08c-.05.02-.08.03-.09.03s-.02-.02-.02-.06v-.33c.02-.14.02-.28.02-.44v-1.13c-.12.36-.32.74-.59,1.16l-.04-.04c.25-.44.46-.95.61-1.52h-.27c-.09,0-.17.01-.23.04l-.1-.13c.09,0,.17.01.26.01h.36v-.31c0-.16,0-.33-.01-.51l.26.13s.03.02.03.03c0,0,0,.02-.02.03l-.09.06v.58h.29l.13-.19.22.2Zm1.72,1.41c0,.2.02.34.04.4s.04.11.09.14c.01,0,.02.02.02.03,0,.01-.01.05-.04.1-.03.05-.07.1-.12.12-.05.03-.15.04-.28.04s-.22,0-.27-.02c-.04-.01-.07-.05-.08-.1s-.02-.15-.02-.3v-2.24h-.64v1.23c0,.42-.07.76-.22,1.01s-.36.45-.63.61l-.02-.04c.25-.19.43-.4.54-.63.11-.23.17-.54.17-.94v-1.47l.2.14h.53l.12-.16.25.19s.02.02.02.03c0,0,0,.02-.02.02l-.12.06v2.19c0,.09,0,.15.01.18s.03.06.06.07c.03.01.08.02.15.02s.12-.01.15-.04c.03-.02.05-.08.06-.17.01-.09.02-.25.03-.48h.05Z"/>
    <path class="cls-5" d="m72.98,609.7l-.09.05v1.69c0,.17,0,.31,0,.41v.25s-.01.07-.06.09-.08.03-.09.03-.02-.01-.02-.04v-.27h-1.67v.24s0,.05-.01.05c0,0-.03.02-.06.03-.03.01-.06.02-.07.02s-.02-.02-.02-.05,0-.12,0-.27c0-.15,0-.32,0-.52v-1.63c0-.13,0-.25-.01-.36l.22.19h.42l.13-.62.25.08s.05.02.05.03c0,0,0,.02-.03.03-.05.03-.1.07-.14.13-.04.06-.1.18-.18.36h1.06l.12-.17.21.17s.04.04.04.05c0,0-.01.02-.04.04Zm-.26.64v-.65h-1.67v.65h1.67Zm0,.72v-.64h-1.67v.64h1.67Zm0,.77v-.69h-1.67v.69h1.67Z"/>
    <path class="cls-5" d="m75.45,610.22s.02.03.02.04c0,0-.01.01-.03.01h-.83l.16.12s.02.02.02.03c0,0-.02.02-.05.03-.03.01-.05.02-.07.04-.02.01-.03.03-.05.06-.19.34-.36.62-.5.83l.99-.1c-.04-.18-.14-.38-.29-.59l.04-.03c.21.21.34.36.4.45s.1.17.1.23-.01.11-.04.15c-.03.04-.06.06-.09.06s-.05-.01-.06-.03c-.01-.02-.02-.05-.02-.1s-.01-.07-.02-.08l-.43.09c-.34.07-.55.14-.63.2,0,0-.01,0-.02,0,0,0-.02,0-.03-.02l-.18-.2c.05-.02.1-.04.14-.06s.08-.05.1-.09c.03-.03.08-.13.16-.29s.14-.3.18-.42c.04-.12.07-.21.09-.27h-.4c-.09,0-.16.01-.22.04l-.09-.13c.1,0,.19.01.25.01h1.05l.15-.2.21.23Zm-.11-.74s.03.03.03.04-.01.01-.03.01h-1.07c-.09,0-.16.01-.22.04l-.09-.13c.1,0,.19.01.25.01h.8l.14-.19.21.21Zm1.6.42s.03.03.03.04c0,0-.01.02-.03.04l-.13.08c0,.27-.02.55-.03.85s-.03.51-.05.65-.03.23-.05.28c-.02.05-.06.1-.1.15-.05.04-.1.08-.16.12-.06.03-.1.05-.11.05s-.03-.02-.04-.06-.06-.08-.13-.12c-.07-.04-.17-.07-.29-.11v-.06c.18.04.32.07.42.07.15,0,.24-.05.27-.16s.06-.36.08-.76c.02-.4.03-.72.03-.95h-.62c-.03.75-.15,1.27-.36,1.56-.21.29-.54.53-1,.73l-.03-.06c.45-.23.76-.49.93-.78.17-.28.27-.77.28-1.45h-.19c-.09,0-.17.01-.23.04l-.1-.13c.11,0,.2.01.26.01h.26c0-.35.01-.66.01-.92l.3.13s.04.02.04.03c0,0,0,.02-.03.03l-.12.07c0,.2,0,.42-.02.66h.54l.13-.18.25.18Z"/>
    <path class="cls-5" d="m78.65,610.04s.02.02.02.03c0,0-.01.01-.03.01h-.55v.29c.17.09.3.18.37.25.07.07.11.14.11.21,0,.04-.01.08-.03.11s-.05.05-.08.05-.06-.04-.07-.11c-.04-.15-.13-.3-.3-.44v1.03c0,.22,0,.36,0,.43v.19s-.02.08-.06.09c-.04.02-.07.03-.09.03s-.02-.02-.02-.07v-.29c.02-.12.02-.24.02-.38v-1.03c-.19.42-.4.78-.63,1.06l-.04-.03c.29-.45.5-.91.64-1.38h-.32c-.09,0-.17.01-.23.04l-.1-.13c.11,0,.2.01.26.01h.43v-.63c-.17.04-.38.08-.62.12v-.05c.47-.13.85-.27,1.12-.41l.15.16s.02.03.02.04,0,.01-.02.01h-.07s-.1,0-.18.03c-.08.03-.17.05-.27.07v.67h.24l.12-.19.2.22Zm1.85,1.88s.02.03.02.03c0,0-.01.01-.03.01h-1.87c-.09,0-.17.01-.23.04l-.1-.13c.11,0,.2.01.26.01h.83v-.67h-.42c-.1,0-.17.01-.23.04l-.1-.13c.11,0,.2.01.26.01h.5v-.56h-.46c-.09,0-.17.01-.23.04l-.1-.13c.11,0,.2.01.26.01h1.21l.14-.18.22.21s.03.03.03.04-.01,0-.04,0h-.86v.56h.38l.13-.19.23.22s.03.03.03.04c0,0-.01.01-.04.01h-.73v.67h.59l.15-.2.23.23Zm-.26-2.66s.01.01.01.02,0,.01-.02.02l-.11.07v.53s0,.14.01.27c0,.03-.02.06-.06.08-.04.02-.07.03-.09.03s-.02-.02-.02-.05v-.15h-.95v.13s-.02.06-.07.08c-.05.02-.07.03-.09.03s-.02-.01-.02-.04v-.35s.01-.49.01-.49c0-.13,0-.25-.01-.36l.19.17h.89l.1-.15.23.17Zm-.28.74v-.69h-.95v.69h.95Z"/>
    <path class="cls-5" d="m83.9,609.46s.04.04.04.06-.02.02-.05.02h-2.53v1.01c0,.46-.05.81-.14,1.06s-.23.45-.42.6l-.04-.04c.14-.16.25-.36.32-.6.07-.23.11-.58.11-1.04v-.77c0-.21,0-.38-.01-.5l.24.2h2.15l.13-.21.2.21Zm.05,1.28s.02.02.02.03,0,0-.03.01c-.06,0-.12.04-.19.09s-.17.17-.32.35l-.04-.02.23-.42h-.86v1.23c0,.06,0,.11-.03.14-.02.03-.06.06-.12.1s-.1.05-.11.05-.02,0-.03-.03c-.02-.05-.05-.09-.11-.12-.06-.03-.17-.06-.33-.09v-.05c.18.02.3.03.37.03s.13,0,.16-.02c.03-.02.05-.05.05-.09v-1.13h-.83c-.09,0-.17.01-.23.04l-.1-.13c.11,0,.2.01.26.01h1.92l.11-.14.22.18Zm-.34-.79s.03.03.03.04-.02.01-.05.01-.07.01-.12.03c-.05.02-.1.04-.13.07l-.51.36s.02.05.02.08,0,.06-.02.08c-.02.03-.03.04-.05.04-.04,0-.08-.03-.1-.09-.03-.06-.08-.13-.16-.2s-.19-.14-.31-.2l.02-.04c.31.07.5.16.59.27l.48-.44h-1.24c-.09,0-.17.01-.23.04l-.1-.13c.11,0,.2.01.26.01h1.33l.13-.12.2.18Zm-1.36-.97c.28.07.42.17.42.29,0,.04-.01.08-.04.11-.02.03-.05.05-.07.05s-.04,0-.05-.02-.02-.04-.03-.08c0-.04-.04-.09-.08-.15-.04-.06-.1-.11-.18-.17l.02-.04Z"/>
    <path class="cls-5" d="m85.38,609.32s.02.02.02.02-.01.02-.04.03c-.03.01-.06.04-.09.08s-.06.09-.1.17l-.28.57c.1.13.18.24.24.34.06.1.1.18.12.24.02.07.03.14.03.21,0,.15-.05.26-.15.32s-.16.09-.19.09c-.01,0-.02-.01-.03-.04,0-.03-.04-.06-.08-.09-.05-.03-.11-.06-.18-.07v-.06c.08.01.15.02.23.02s.14-.02.18-.07.07-.11.07-.21c0-.14-.1-.36-.31-.66l.28-.84h-.47v2.06c0,.25,0,.41,0,.49v.22s-.02.07-.07.09c-.05.02-.08.03-.09.03s-.02-.02-.02-.07v-.33c.02-.14.02-.28.02-.44v-1.79c0-.16,0-.33-.01-.51l.21.17h.4l.09-.12.21.15Zm2.12,2.65c-.15.04-.23.09-.25.14,0,.02-.03.03-.05.03-.17,0-.36,0-.57-.02-.21,0-.36-.02-.46-.04-.09-.02-.17-.04-.24-.09-.07-.04-.13-.11-.18-.18s-.1-.12-.12-.12-.05.02-.08.05-.08.1-.16.2-.12.17-.13.19c-.01.03-.02.04-.03.04,0,0-.02,0-.04-.03l-.13-.13.48-.38v-1.08h-.11c-.08,0-.14.01-.19.03l-.08-.11c.05,0,.12.01.21.01h.14l.1-.14.17.15s.03.03.03.04c0,0,0,.02-.03.03l-.08.05v.95c0,.08.04.15.11.22s.18.12.3.14c.13.03.33.04.61.04s.53-.01.76-.04v.04Zm-2.05-2.57c.12.1.2.18.24.25s.07.13.07.18-.02.1-.05.13c-.03.04-.07.05-.11.05-.04,0-.05-.04-.05-.13,0-.1,0-.18-.02-.23s-.05-.13-.11-.22l.03-.03Zm1.98.17s.03.04.03.04c0,0-.02.01-.06.01h-.99c-.06.13-.12.24-.18.33l.12.08h.62l.09-.13.2.14s.03.03.03.04c0,0,0,.02-.03.03l-.08.05v1.24c0,.08,0,.15-.02.19s-.05.08-.1.12c-.06.04-.09.06-.1.06s-.02-.01-.03-.04c-.01-.08-.12-.14-.33-.17v-.05c.1.01.19.02.24.02s.1,0,.13-.02c.03-.01.04-.04.04-.08v-.39h-.67v.56s0,.06-.01.07c0,.01-.03.03-.06.05s-.06.03-.07.03-.02-.02-.02-.07v-.22c0-.09.01-.19.01-.29v-1.15c-.1.15-.21.3-.35.43l-.03-.03c.16-.21.31-.47.45-.8h-.08c-.11,0-.2.01-.27.04l-.1-.13c.08,0,.16.01.26.01h.22c.07-.16.13-.35.19-.55l.18.09s.05.03.05.04c0,0-.02.02-.06.04-.02,0-.05.06-.09.15-.04.09-.08.17-.11.23h.65l.13-.18.2.19Zm-.41.92v-.37h-.67v.37h.67Zm0,.48v-.4h-.67v.4h.67Z"/>
    <path class="cls-5" d="m89.18,609.83s.03.03.03.04-.02.02-.05.02h-.62v.42c.13.04.23.09.32.13s.14.09.17.13c.03.04.05.08.05.13s0,.08-.02.11c-.02.03-.03.04-.05.04-.04,0-.08-.03-.1-.1s-.07-.13-.14-.2c-.07-.07-.14-.12-.22-.17v1.05c0,.26,0,.42,0,.5v.21s-.02.07-.07.08c-.05.02-.08.03-.09.03s-.02-.02-.02-.06v-.33c.02-.14.02-.28.02-.44v-1.13c-.12.36-.32.74-.59,1.16l-.04-.04c.25-.44.46-.95.61-1.52h-.27c-.09,0-.17.01-.23.04l-.1-.13c.09,0,.17.01.26.01h.36v-.31c0-.16,0-.33-.01-.51l.26.13s.03.02.03.03c0,0,0,.02-.02.03l-.09.06v.58h.29l.13-.19.22.2Zm1.72,1.41c0,.2.02.34.04.4s.04.11.09.14c.01,0,.02.02.02.03,0,.01-.01.05-.04.1-.03.05-.07.1-.12.12-.05.03-.15.04-.28.04s-.22,0-.27-.02c-.04-.01-.07-.05-.08-.1s-.02-.15-.02-.3v-2.24h-.64v1.23c0,.42-.07.76-.22,1.01s-.36.45-.63.61l-.02-.04c.25-.19.43-.4.54-.63.11-.23.17-.54.17-.94v-1.47l.2.14h.53l.12-.16.25.19s.02.02.02.03c0,0,0,.02-.02.02l-.12.06v2.19c0,.09,0,.15.01.18s.03.06.06.07c.03.01.08.02.15.02s.12-.01.15-.04c.03-.02.05-.08.06-.17.01-.09.02-.25.03-.48h.05Z"/>
    <path class="cls-5" d="m92.54,609.84s.05.05.05.06-.02.02-.06.02h-.42v.65l.36-.17.02.04-.39.24v1.11c0,.13,0,.22-.02.27-.01.05-.05.09-.11.13-.06.04-.1.06-.11.06-.01,0-.02-.02-.04-.06s-.05-.07-.12-.11c-.07-.04-.16-.07-.28-.1v-.05c.2.03.32.04.38.04s.09-.01.11-.03c.01-.02.02-.07.02-.13v-1.04c-.27.16-.41.26-.43.3,0,.02-.02.02-.02.02s-.01,0-.03-.01l-.15-.14.63-.3v-.73h-.26c-.09,0-.17.01-.23.04l-.1-.13c.11,0,.2.01.26.01h.33v-.34c0-.2,0-.37-.01-.51l.25.13s.04.02.04.03c0,0,0,.02-.02.03l-.08.06v.6h.16l.12-.16.15.16Zm1.84.06s.03.03.03.04-.01.02-.04.03l-.08.05v1.31c0,.2,0,.36,0,.47v.26s-.02.06-.06.08c-.05.03-.07.04-.09.04s-.02-.02-.02-.07v-.2h-1.32v.25s-.02.05-.07.08c-.05.02-.08.03-.09.03s-.02-.02-.02-.06v-.25c.01-.1.01-.24.01-.44v-1.4c0-.15,0-.27-.01-.38l.2.16h.55v-.36c0-.21,0-.38-.01-.53l.24.12s.05.03.05.04c0,0-.01.02-.04.04l-.08.06v.63h.52l.11-.15.2.15Zm-.99.93v-.86h-.58v.86h.58Zm0,1v-.92h-.58v.92h.58Zm.74-1v-.86h-.58v.86h.58Zm0,1v-.92h-.58v.92h.58Z"/>
    <path class="cls-5" d="m96.75,609.25s.03.03.03.04c0,.01-.01.02-.04.02h-.57v1.82l.55-.14.02.06-.57.17v.43c0,.1,0,.19,0,.3,0,.1,0,.16,0,.18,0,.04-.02.07-.07.09s-.08.03-.09.03-.02-.03-.02-.08v-.2c0-.07,0-.17,0-.31v-.38l-.68.21c-.06.02-.13.05-.21.09-.08.04-.13.07-.15.08-.02.02-.03.02-.04.02s-.01,0-.02-.01l-.18-.18.46-.12v-2.07h-.12c-.09,0-.17.01-.23.04l-.1-.13c.11,0,.2.01.26.01h1.42l.14-.19.2.21Zm-.75.64v-.58h-.65v.58h.65Zm0,.68v-.6h-.65v.6h.65Zm0,.61v-.53h-.65v.69l.65-.16Zm2.04.68c-.18,0-.29.02-.33.08,0,0-.01.01-.02.01-.03,0-.11-.07-.27-.2-.15-.14-.27-.26-.35-.38-.19.28-.47.54-.84.77l-.02-.07c.34-.26.59-.54.77-.84-.1-.17-.19-.37-.25-.61-.06-.23-.12-.55-.16-.95-.08,0-.15.02-.2.04l-.1-.13c.11,0,.2.01.26.01h.89l.12-.17.23.19s.02.03.02.03,0,.02-.02.03l-.11.07c-.14.66-.3,1.16-.49,1.48.2.26.49.46.89.59v.05Zm-.59-2.18h-.8c.09.63.22,1.1.41,1.4.19-.36.32-.83.39-1.4Z"/>
    <path class="cls-5" d="m101.48,610.75s.03.03.03.04-.01.02-.04.02h-.97v.69c0,.19,0,.33,0,.41v.22s-.01.07-.06.09c-.05.02-.08.03-.09.03s-.02-.03-.02-.09v-.28c0-.11.01-.25.01-.39v-.68h-.89c-.04.46-.15.78-.31.96-.17.18-.42.35-.77.51l-.03-.06c.33-.16.56-.34.7-.54.14-.2.22-.49.24-.87h-.69c-.09,0-.17.01-.23.04l-.1-.13c.11,0,.2.01.26.01h.77c.02-.32.03-.61.03-.85h-.52c-.09,0-.17.01-.23.04l-.1-.13c.11,0,.2.01.26.01h1.39c.16-.26.32-.52.46-.8l.22.14s.03.02.03.03c0,0-.01.02-.03.02-.08.02-.15.07-.21.15l-.37.46h.75l.15-.2.23.21s.03.03.03.04-.01.02-.04.02h-.83v.85h.58l.16-.21.24.23Zm-2.41-1.75c.37.17.55.34.55.51,0,.04-.01.08-.03.12s-.05.05-.08.05-.06-.03-.07-.1c-.01-.08-.06-.17-.12-.28s-.16-.19-.27-.28l.03-.04Zm1.27,1.73v-.85h-.85c0,.31,0,.6-.03.85h.88Z"/>
    <path class="cls-5" d="m102.44,610.01c-.16.25-.38.49-.64.74l-.02-.04c.37-.37.64-.86.82-1.46l.23.18s.02.02.02.03c0,0-.02.02-.06.03-.04,0-.08.05-.1.11-.06.12-.12.24-.19.34h.85v-.42c0-.22,0-.4-.01-.53l.31.18s.02.01.02.02c0,0-.01.01-.03.03l-.11.07v.65h.84l.17-.23.26.27s.02.02.02.03c0,0-.01,0-.04,0h-1.25v.89h.72l.17-.22.26.26s.02.02.02.03-.01.01-.04.01h-1.13v1.02h1.05l.16-.22.26.26s.02.02.02.03-.01,0-.04,0h-2.83c-.1,0-.18.01-.22.03l-.13-.12c.07,0,.16.01.27.01h1.27v-1.02h-.81c-.11,0-.18,0-.23.02l-.11-.12c.09.01.18.02.26.02h.89v-.89h-.9Z"/>
    <path class="cls-5" d="m108.4,611.34c-.01.15-.02.28-.02.39,0,.19.02.31.06.36.04.04.06.07.06.08s0,.02-.02.03c-.01,0-.03.01-.05.01-.08,0-.22-.07-.44-.2s-.39-.31-.53-.55c-.22.31-.56.57-1,.78l-.02-.04c.43-.27.75-.56.95-.87-.17-.34-.28-.83-.32-1.47h-1.2v.59h.59l.1-.16.21.14s.03.03.03.03c0,0,0,.02-.03.03l-.09.06c-.01.35-.02.61-.03.77-.01.17-.02.27-.03.3,0,.03-.02.07-.05.11-.02.04-.07.08-.14.12-.07.04-.11.06-.12.06s-.02-.01-.03-.04c-.01-.06-.05-.11-.1-.14s-.13-.07-.23-.11l.02-.04c.17.04.28.06.35.06s.11-.03.13-.09c.02-.06.03-.19.04-.4,0-.21.02-.43.02-.66h-.65c0,.32-.01.58-.04.77-.03.2-.08.37-.17.52-.08.15-.2.3-.36.44l-.03-.04c.17-.2.29-.41.35-.63.06-.22.09-.53.09-.92v-.67c0-.2,0-.33-.01-.41l.23.2h1.13c-.02-.33-.03-.59-.04-.77l.27.13s.03.02.03.03,0,.02-.02.03l-.09.07c0,.06,0,.13,0,.22s0,.18,0,.29h.82l.15-.19.21.22s.02.03.02.04,0,.01-.03.01h-1.17c.04.57.12,1.01.26,1.31.14-.25.27-.58.39-1l.25.15s.02.02.02.02-.01.01-.04.02c-.05,0-.1.05-.13.14-.14.34-.28.61-.41.82.14.25.35.45.63.62l.15-.62h.05Zm-.89-2.2c.19.06.32.12.38.17s.09.1.09.16c0,.03-.01.06-.03.09-.02.03-.04.04-.06.04s-.04,0-.05-.02-.03-.04-.06-.1c-.03-.06-.06-.11-.11-.16-.05-.05-.11-.1-.18-.15l.02-.04Z"/>
    <path class="cls-5" d="m109.27,612.26c.16-.13.26-.22.29-.29.03-.07.05-.13.05-.2,0-.05-.03-.08-.09-.08s-.12-.02-.16-.05c-.04-.03-.07-.07-.07-.12s.02-.09.05-.13.08-.06.14-.06c.08,0,.15.04.22.11.06.07.1.16.1.27s-.04.22-.12.33c-.08.12-.19.22-.34.3l-.06-.08Z"/>
    <path class="cls-5" d="m114.75,608.89s.03,0,.04.02c.02.02.02.03.02.04s-.02.03-.05.05c-.18.13-.27.24-.27.34,0,.05.03.08.08.1.07.03.11.08.11.15,0,.04-.01.08-.04.12-.03.03-.07.05-.13.05s-.11-.02-.16-.08c-.05-.05-.07-.11-.07-.19,0-.13.07-.26.21-.4.14-.14.22-.21.26-.21Zm.54,0s.03,0,.04.02c.02.02.02.03.02.04s-.02.03-.05.05c-.18.13-.27.24-.27.34,0,.05.03.08.08.1.07.03.11.08.11.15,0,.04-.01.08-.04.12-.03.03-.07.05-.13.05s-.11-.02-.16-.08c-.05-.05-.07-.11-.07-.19,0-.13.07-.26.2-.4.14-.14.22-.21.26-.21Z"/>
    <path class="cls-5" d="m118.97,610.41s.03.04.03.05c0,.01-.02.02-.05.02h-2.85c-.1,0-.17.01-.23.04l-.1-.13c.11,0,.2.01.26.01h2.55l.16-.23.24.25Z"/>
    <path class="cls-5" d="m122.43,609.55s.04.04.04.05c0,.01-.02.02-.05.02h-2.8c-.09,0-.17.01-.23.04l-.1-.13c.11,0,.2.01.26.01h2.52l.15-.2.23.2Zm-.43,1.04s.04.04.04.06c0,.01-.02.02-.05.02h-1.86c-.09,0-.17.01-.23.04l-.1-.13c.11,0,.2.01.26.01h1.61l.13-.18.21.18Zm-.02-.52s.04.04.04.06-.02.02-.05.02h-1.83c-.09,0-.17.01-.23.04l-.1-.13c.11,0,.2.01.26.01h1.59l.13-.17.2.17Zm-.09,1.11l-.09.07v.46c0,.11,0,.2,0,.28,0,.08,0,.11,0,.12,0,.03-.02.06-.07.09-.05.03-.08.04-.09.04s-.02-.02-.02-.05v-.27h-1.49v.21s-.02.06-.07.08c-.04.02-.07.03-.09.03s-.02-.02-.02-.05v-.19c0-.08.01-.17.01-.27v-.43c0-.13,0-.25-.01-.36l.22.17h1.37l.11-.15.21.16s.03.03.03.04c0,0,0,.02-.03.03Zm-.26.66v-.66h-1.49v.66h1.49Zm-.98-2.85c.13.06.24.12.32.17s.12.12.12.19c0,.04-.01.08-.04.12s-.05.05-.08.05-.04,0-.05-.02c-.01-.02-.02-.06-.04-.12-.03-.14-.12-.26-.26-.36l.03-.04Z"/>
    <path class="cls-5" d="m123.27,608.89c.06,0,.11.03.16.08.04.05.07.12.07.19s-.03.16-.09.26c-.06.1-.14.19-.24.27-.1.08-.16.12-.19.12,0,0-.02,0-.03-.02-.01-.01-.02-.02-.02-.04,0-.01.01-.03.04-.06.2-.15.29-.27.29-.38,0-.05-.02-.08-.07-.1-.07-.03-.1-.08-.1-.14,0-.05.02-.09.05-.13.03-.04.08-.06.13-.06Zm.53,0c.06,0,.12.03.16.08s.06.12.06.19-.03.15-.08.24c-.05.09-.13.18-.23.27-.1.09-.17.13-.2.13,0,0-.02,0-.03-.01-.01,0-.02-.02-.02-.03,0-.03.01-.05.04-.07.2-.15.29-.28.29-.38,0-.05-.02-.08-.07-.1-.07-.03-.1-.08-.1-.15,0-.05.02-.09.05-.13.03-.04.07-.05.12-.05Z"/>
    <path class="cls-5" d="m127.77,609.76l-.12.07v1.42c0,.17,0,.31,0,.41v.25s-.01.08-.06.09c-.05.02-.08.03-.09.03s-.02-.01-.02-.04v-.26h-.82v.33s0,.04-.01.05-.03.02-.06.04c-.03.01-.06.02-.07.02-.02,0-.04-.02-.04-.05s0-.12,0-.25c0-.14,0-.3,0-.49v-1.52c0-.13,0-.25-.01-.34l.21.17h.14c.09-.23.15-.46.18-.7l.22.12s.04.03.04.04c0,0-.01.02-.03.02-.02,0-.05.02-.07.04s-.04.05-.05.07l-.19.42h.5l.12-.16.22.17s.03.02.03.03,0,.01-.03.03Zm-.28.88v-.87h-.82v.87h.82Zm0,1.03v-.95h-.82v.95h.82Zm1.84-1.87l-.11.07c-.02.69-.04,1.18-.05,1.49-.02.3-.04.51-.07.61s-.1.19-.21.28c-.04.03-.07.04-.08.04-.03,0-.05-.01-.06-.04s-.02-.05-.05-.08c-.02-.02-.07-.04-.13-.06-.07-.02-.16-.04-.29-.06v-.06c.16.02.29.02.39.02s.16-.01.21-.04c.05-.03.08-.09.09-.18.02-.09.04-.3.05-.64.02-.34.03-.79.04-1.35h-.84c-.06.16-.21.39-.45.69l-.04-.03c.26-.4.46-.88.62-1.45l.21.11s.05.03.05.04c0,.01-.02.02-.06.03-.04,0-.07.05-.11.13-.05.12-.11.25-.19.39h.75l.1-.17.22.18s.03.03.03.04c0,0,0,.02-.03.03Zm-1.31.65c.09.05.19.11.29.19.1.08.18.15.24.22.06.07.09.14.09.22,0,.04,0,.07-.03.1-.02.02-.04.04-.07.04-.04,0-.07-.03-.09-.08-.03-.08-.08-.19-.16-.31s-.18-.23-.29-.34l.02-.03Z"/>
    <path class="cls-5" d="m132.67,609.85l-.1.06v2.01c0,.08-.01.14-.04.17-.02.04-.07.07-.13.11-.06.04-.1.06-.11.06s-.02-.01-.03-.03c-.02-.08-.08-.14-.16-.19-.08-.04-.2-.09-.36-.13v-.05c.28.05.45.07.51.07s.11,0,.12-.03.02-.05.02-.09v-1.97h-1c-.01.21-.04.38-.07.54.53.28.79.51.79.69,0,.05-.01.09-.04.13-.03.04-.05.06-.08.06s-.05-.02-.07-.05c-.02-.03-.04-.08-.06-.14-.02-.06-.08-.15-.18-.27s-.22-.24-.38-.34c-.06.18-.17.37-.34.56-.17.19-.36.34-.58.45l-.02-.04c.34-.28.57-.53.68-.75s.17-.5.19-.83h-.94v1.56c0,.23,0,.4,0,.51,0,.12,0,.18,0,.18,0,.04-.03.07-.08.09-.05.02-.08.03-.09.03-.02,0-.03-.02-.03-.05s0-.12,0-.27,0-.31,0-.51v-1.33c0-.16,0-.33-.01-.51l.21.2h.91c0-.07,0-.17,0-.29s0-.29-.01-.53l.3.14s.03.02.03.02-.01.02-.03.03l-.09.06c0,.25-.02.44-.02.56h.91l.13-.19.23.18s.04.04.04.04c0,0-.01.02-.04.04Z"/>
    <path class="cls-5" d="m136.55,611.09c-.07,0-.13.01-.18.04s-.09.07-.13.13c0,0-.02.01-.03.01-.03,0-.15-.06-.36-.17-.21-.11-.4-.25-.56-.4-.17-.15-.29-.32-.38-.49-.02.02-.05.05-.07.07-.31.35-.59.62-.85.8s-.51.33-.75.42l-.02-.05c.36-.21.67-.42.92-.65.25-.23.48-.51.69-.84l.2.13s.04.02.04.03c0,0-.01.02-.04.02-.03,0-.05.02-.07.02.15.24.37.45.67.61s.6.26.91.26v.05Zm-2.18-1.39l.19.15s.03.03.03.04c0,0,0,.01-.03.02-.07.02-.11.03-.14.05-.03.01-.06.03-.08.05-.39.35-.72.61-.98.77l-.03-.04c.34-.25.68-.6,1.04-1.04Zm2.08-.23s.03.03.03.04c0,0-.01.01-.04.02-.07,0-.15.04-.22.09-.07.05-.17.15-.31.29l-.05-.03.23-.37h-2.26c0,.17-.03.28-.09.34s-.12.09-.17.09c-.03,0-.05,0-.07-.02-.02-.01-.02-.03-.02-.06,0-.04.03-.08.08-.11.05-.03.1-.09.13-.16s.06-.17.08-.27h.05v.13h2.25l.12-.16.25.21Zm-.68,1.68s.02.01.02.02,0,.01-.02.02l-.08.05v.46c0,.1,0,.19,0,.27,0,.08,0,.12,0,.14,0,.04-.02.07-.07.09-.05.02-.08.03-.08.03-.02,0-.02-.02-.02-.05v-.16h-1.23v.15s0,.03-.01.04c0,0-.03.02-.06.03s-.06.02-.08.02-.03-.02-.03-.06v-.35s.01-.56.01-.56c0-.11,0-.2-.01-.27l.19.1h1.17l.07-.1.21.14Zm-.25.79v-.75h-1.23v.75h1.23Zm-.86-2.98c.17.06.29.12.34.17.06.05.09.1.09.14s-.01.08-.04.11c-.03.03-.05.05-.08.05s-.04,0-.05-.02c-.01-.01-.03-.05-.05-.11-.02-.06-.05-.11-.08-.15-.03-.04-.08-.09-.16-.15l.02-.04Zm.6.8c.15.06.29.11.41.17s.21.12.28.17c.07.06.12.1.13.13.02.03.03.07.03.1s0,.06-.02.09c-.02.03-.03.04-.05.04s-.04,0-.05-.02c-.01-.01-.03-.03-.06-.07-.09-.13-.19-.24-.3-.33-.11-.09-.23-.17-.39-.26l.02-.04Z"/>
    <path class="cls-5" d="m139.96,609.38s.03.03.03.04c0,.01-.01.02-.04.02h-1.28c-.1.2-.19.37-.27.5l.19.09s.03.02.03.03c0,0,0,.02-.02.03l-.08.07v1.29c0,.2,0,.34,0,.43v.23s0,.04,0,.05-.03.03-.08.05c-.04.02-.07.03-.09.03s-.02-.02-.02-.06v-.28c.02-.11.02-.25.02-.42v-1.47c-.48.74-1.01,1.29-1.58,1.64l-.03-.04c.38-.3.71-.64,1.01-1.02.29-.38.53-.76.69-1.16h-1.3c-.09,0-.17.01-.23.04l-.1-.13c.11,0,.2.01.26.01h2.52l.15-.22.25.24Zm-1.17.94c.24.13.44.24.59.34s.26.18.34.25.12.12.13.16c.01.03.02.07.02.12s0,.09-.03.13c-.02.04-.04.06-.07.06s-.05,0-.06-.03c-.02-.02-.03-.06-.06-.11-.04-.09-.14-.22-.3-.38-.16-.16-.35-.33-.59-.49l.02-.05Z"/>
    <path class="cls-5" d="m141.42,609.24s.03.02.03.03c0,0-.02.02-.05.03-.03.01-.06.03-.07.04-.02.01-.03.04-.05.08-.08.18-.16.36-.25.54l.1.03s.03.01.03.02c0,0,0,.02-.02.03l-.08.07v1.38c0,.18,0,.32,0,.42,0,.1,0,.15,0,.17s0,.03-.01.04-.03.02-.07.04c-.04.01-.06.02-.08.02s-.03-.03-.03-.08v-.27c0-.11.01-.22.01-.35v-1.29c-.21.35-.42.64-.63.86l-.03-.03c.44-.59.76-1.24.96-1.95l.23.16Zm1.97,2.06c0,.11-.01.22-.01.3,0,.27.04.46.11.56,0,.01.01.02.01.04,0,.03-.02.05-.05.05-.09,0-.2-.03-.34-.09s-.28-.14-.4-.25c-.12-.11-.23-.24-.32-.39s-.16-.33-.21-.51c-.05-.19-.08-.43-.1-.74l-.55.05c-.11.01-.19.03-.23.05l-.11-.12c.12,0,.2,0,.26,0l.63-.06-.02-1.14.27.14s.03.02.03.03c0,0,0,.02-.02.03l-.08.07c0,.17-.01.32-.01.47s0,.28,0,.4l.8-.07.12-.21.26.2s.03.03.03.04c0,0-.01.02-.04.02l-1.17.11c.03.48.12.86.27,1.14.15.28.39.48.71.62l.1-.71h.06Zm-.81-2.07c.15.06.26.11.33.16.07.05.12.09.15.13.02.04.04.08.04.12s-.01.09-.04.12c-.03.04-.05.06-.08.06s-.05-.02-.07-.07c-.06-.19-.18-.35-.35-.48l.02-.04Z"/>
    <path class="cls-5" d="m147.02,611.99c-.11,0-.19,0-.26.02-.06.02-.12.05-.15.1,0,0-.01.01-.02.01-.04,0-.16-.07-.37-.21-.21-.14-.38-.31-.52-.51s-.24-.45-.29-.75c-.12.14-.28.3-.47.46v.83l.72-.3.02.05-.54.31c-.14.08-.25.17-.31.24,0,0-.02.01-.02.01,0,0-.01,0-.02-.01l-.15-.18c.05-.03.09-.06.11-.08s.03-.06.03-.09v-.65c-.34.25-.67.44-.98.58l-.03-.04c.63-.36,1.11-.74,1.45-1.13h-1.09c-.09,0-.17.01-.23.04l-.1-.14c.11,0,.2.01.26.01h1.29v-.42h-.8c-.09,0-.17.01-.23.04l-.1-.13c.11,0,.2.01.26.01h.88v-.45h-1.03c-.09,0-.17.01-.23.04l-.12-.13c.1.01.19.02.27.02h1.11c0-.21,0-.39-.01-.57l.27.13s.03.02.03.03c0,0,0,.02-.02.03l-.09.07v.31h.97l.13-.19.26.21s.03.03.03.04c0,0-.01.01-.04.01h-1.35v.45h.71l.13-.18.23.2s.03.03.03.04-.01.02-.04.02h-1.06v.42h1.07l.14-.18.22.2s.04.04.04.05c0,0-.02.02-.05.02h-1.44c.09.26.2.47.32.63.28-.16.5-.31.67-.45l.2.21s.02.02.02.03c0,0-.01.01-.04,0-.03,0-.05,0-.08,0s-.07,0-.12.03c-.06.02-.25.1-.59.24.29.33.68.53,1.18.61v.04Z"/>
    <path class="cls-5" d="m148.11,609.01l.22.15s.04.03.04.04c0,0-.02.02-.05.03-.03.01-.06.02-.07.04-.02.02-.03.04-.04.06l-.13.25c-.07.14-.14.27-.2.37l.16.09s.02.02.02.03,0,.02-.03.03l-.09.06v1.36c0,.18,0,.32,0,.42,0,.1,0,.15,0,.17s0,.03-.01.05-.03.02-.07.04c-.04.01-.06.02-.08.02s-.03-.03-.03-.08v-.27c0-.11.01-.23.01-.35v-1.39c-.16.26-.35.52-.56.77l-.04-.03c.42-.61.73-1.23.93-1.85Zm2.37,1.55s.05.04.05.06c0,.01-.02.02-.06.02h-1.05v1.21h.54l.14-.2.24.2s.05.04.05.06-.02.02-.06.02h-1.71c-.09,0-.17.01-.23.04l-.1-.13c.11,0,.2.01.26.01h.71v-1.21h-.85c-.09,0-.17.01-.23.04l-.1-.13c.11,0,.2.01.26.01h.92v-.99c-.31.05-.61.09-.91.1v-.05c.7-.13,1.28-.27,1.71-.43l.15.16s.04.04.04.05c0,0,0,.01-.02.01h-.09s-.1,0-.17.01l-.53.1v1.02h.69l.13-.2.25.2Z"/>
    <path class="cls-5" d="m151.77,609.14s.04.03.04.04c0,0-.02.02-.05.03s-.05.03-.07.04c-.02.02-.05.09-.1.21-.05.12-.14.29-.24.5l.12.06s.02.02.02.02,0,.02-.02.03l-.07.06v1.41c0,.17,0,.31,0,.41s0,.16,0,.17c0,.03-.02.07-.07.09-.05.03-.07.04-.09.04s-.02-.02-.02-.05v-.28c.02-.12.02-.25.02-.39v-1.42c-.2.37-.37.64-.52.83l-.03-.02c.42-.72.7-1.37.85-1.94l.21.15Zm2.18.36s.03.04.03.05-.01.02-.04.02h-.43v2.41c0,.06-.04.12-.13.19-.09.07-.14.1-.17.1-.01,0-.02-.01-.03-.04-.02-.07-.05-.12-.11-.16s-.19-.08-.38-.15v-.04c.24.05.4.07.48.07s.13,0,.15-.03.03-.05.03-.09v-2.27h-1.29c-.09,0-.17.01-.23.04l-.1-.13c.11,0,.2.01.26.01h1.63l.14-.19.21.2Zm-.98.7l-.09.08v.42c0,.19,0,.32,0,.39v.19s-.01.07-.06.09-.07.04-.09.04-.02-.02-.02-.06v-.2h-.61v.17s-.02.05-.06.08-.07.05-.08.05-.02-.02-.02-.06v-.17c0-.06.01-.18.01-.37v-.53c0-.13,0-.25-.01-.36l.22.16h.51l.1-.17.21.17s.02.03.02.03c0,0,0,.02-.02.03Zm-.26.88v-.88h-.61v.88h.61Z"/>
    <path class="cls-5" d="m155.91,612.03c.26-.71.47-1.36.63-1.93l.28.17s.02.02.02.03c0,0-.01.02-.04.03s-.06.03-.08.05c-.03.02-.06.08-.09.17l-.25.61-.37.87h1.06l.19-.25.24.25s.04.04.04.06-.02.02-.05.02h-2.92c-.09,0-.17.01-.23.04l-.1-.13c.08,0,.16.01.26.01h1.43Zm1.48-2.24s.03.04.03.05-.02.02-.05.02h-2.66c-.09,0-.17.01-.23.04l-.1-.13c.08,0,.16.01.26.01h2.36l.17-.24.22.24Zm-2.41.41c.13.16.24.32.34.48.1.16.17.3.21.41s.06.2.06.28c0,.17-.05.26-.16.26-.04,0-.06-.02-.07-.06-.01-.04-.02-.1-.02-.18-.01-.35-.15-.73-.4-1.15l.05-.04Zm.58-1.17c.32.18.49.35.49.49,0,.05-.02.1-.05.14s-.06.06-.09.06-.05,0-.06-.03c-.01-.02-.03-.06-.04-.12-.03-.16-.12-.33-.28-.5l.03-.05Z"/>
    <path class="cls-5" d="m159.17,610s.04.04.04.05-.02.02-.05.02h-.62v1.07l.61-.22.02.06-.88.38c-.16.07-.26.13-.3.19,0,.01-.02.02-.03.02s-.02,0-.03-.01l-.14-.15.58-.21v-1.13h-.29c-.08,0-.15.01-.21.04l-.09-.12c.1,0,.18.01.23.01h.36v-.51c0-.15,0-.31-.01-.48l.26.13s.04.03.04.04c0,0-.01.02-.04.04l-.08.05v.74h.32l.12-.17.19.17Zm1.79.47l-.1.07c-.03.28-.06.54-.1.79-.04.25-.07.42-.09.5-.03.08-.06.15-.11.21s-.1.1-.16.12-.1.04-.11.04-.02,0-.02-.02c-.01-.06-.05-.1-.1-.14-.05-.03-.15-.07-.29-.11v-.05c.19.04.33.05.42.05s.15-.03.19-.1c.04-.07.08-.23.12-.5.05-.27.08-.56.09-.87h-.34c-.09.49-.25.86-.48,1.14-.24.27-.58.49-1.04.64l-.02-.06c.42-.18.73-.41.95-.67.22-.26.36-.61.43-1.04h-.39c-.1.35-.24.64-.43.85-.19.21-.47.4-.84.57l-.03-.05c.63-.34,1.01-.8,1.12-1.37h-.28l-.11.08s-.03.02-.04.02-.02,0-.04-.02l-.16-.14c.15-.04.28-.1.37-.19l.88-.83h-.97c-.08,0-.15.01-.21.04l-.09-.13c.1,0,.18.01.23.01h1.03l.15-.13.19.21s.01.02.01.03c0,0-.01.01-.03.02-.08.02-.14.03-.16.04-.03.01-.06.04-.1.07l-.9.83h1.24l.13-.15.21.17s.02.02.02.03c0,.01,0,.02-.02.03Z"/>
    <path class="cls-5" d="m162.01,611.05c.12,0,.22.04.29.12s.12.18.12.29-.04.21-.12.29-.17.12-.29.12-.22-.04-.29-.12-.12-.17-.12-.29.04-.21.12-.29.18-.12.29-.12Zm0,.71c.09,0,.16-.03.22-.09.06-.06.09-.13.09-.22s-.03-.16-.09-.22c-.06-.06-.13-.09-.22-.09s-.16.03-.22.09-.09.13-.09.22.03.16.09.22c.06.06.13.09.22.09Z"/>
  </g>
  <text class="cls-6" transform="translate(187.64 440.56)"><tspan x="0" y="0">星期日</tspan></text>
  <text class="cls-3" transform="translate(15 464.86)"><tspan x="0" y="0">宜：</tspan><tspan x="0" y="18">忌：</tspan></text>
</svg>